<svg width="752" height="496" viewBox="0 0 752 496" fill="none" xmlns="http://www.w3.org/2000/svg">
<path d="M378.421 495.272C297.998 494.744 218.579 477.35 145.298 444.214C140.935 442.27 137.233 439.099 134.641 435.088C132.049 431.076 130.679 426.398 130.699 421.622V221.143C130.707 214.576 133.319 208.279 137.963 203.635C142.607 198.991 148.904 196.379 155.472 196.371H601.371C607.939 196.379 614.235 198.991 618.88 203.635C623.524 208.279 626.136 214.576 626.143 221.143V421.622C626.163 426.398 624.794 431.076 622.202 435.088C619.61 439.099 615.907 442.27 611.545 444.214C538.263 477.35 458.845 494.744 378.421 495.272Z" fill="#2200FF"/>
<path d="M378.361 332.86C375.056 332.863 371.783 332.205 368.735 330.925L15.1426 181.744C10.5827 179.82 6.70357 176.575 4.00535 172.426C1.30713 168.277 -0.0865216 163.415 0.00416012 158.467C0.0948418 153.519 1.66579 148.711 4.51421 144.664C7.36263 140.617 11.358 137.516 15.9852 135.761L369.582 1.6182C375.278 -0.552293 381.574 -0.538903 387.26 1.65583L736.119 135.798C740.72 137.568 744.689 140.67 747.517 144.707C750.345 148.744 751.905 153.534 751.996 158.462C752.087 163.391 750.706 168.235 748.028 172.374C745.351 176.513 741.5 179.76 736.967 181.698L388.105 330.877C385.024 332.189 381.71 332.863 378.361 332.86Z" fill="#2200FF"/>
<path d="M171.986 457.855C190.228 457.855 205.016 443.068 205.016 424.826C205.016 406.584 190.228 391.796 171.986 391.796C153.744 391.796 138.956 406.584 138.956 424.826C138.956 443.068 153.744 457.855 171.986 457.855Z" fill="#3F3D56"/>
<path opacity="0.2" d="M738.171 160.523L389.306 309.702C386.587 310.865 383.66 311.468 380.702 311.475C377.744 311.482 374.815 310.893 372.09 309.743L18.4976 160.566C14.057 158.738 10.3523 155.481 7.96885 151.312C6.40969 154.016 5.44361 157.02 5.13457 160.126C4.82553 163.231 5.1807 166.367 6.17649 169.325C7.17227 172.283 8.78583 174.995 10.9101 177.281C13.0345 179.568 15.6208 181.376 18.4976 182.586L372.09 331.763C374.815 332.913 377.744 333.502 380.702 333.495C383.66 333.488 386.587 332.885 389.306 331.722L738.171 182.542C741.033 181.322 743.604 179.508 745.713 177.22C747.823 174.933 749.423 172.224 750.409 169.272C751.394 166.321 751.743 163.194 751.431 160.098C751.119 157.002 750.154 154.007 748.6 151.312C746.234 155.448 742.567 158.686 738.171 160.523Z" fill="black"/>
<path d="M174.76 424.697C176.22 424.697 177.62 424.117 178.653 423.085C179.685 422.052 180.265 420.652 180.265 419.192V234.989L361.824 168.847C363.284 168.868 364.693 168.309 365.741 167.292C366.789 166.275 367.389 164.884 367.411 163.424C367.433 161.964 366.874 160.555 365.857 159.507C364.84 158.459 363.448 157.858 361.988 157.837L180.429 223.979C178.968 223.946 177.515 224.209 176.159 224.753C174.803 225.297 173.571 226.111 172.539 227.146C171.495 228.167 170.667 229.388 170.103 230.735C169.539 232.082 169.251 233.529 169.255 234.989V419.192C169.255 420.652 169.835 422.052 170.868 423.084C171.9 424.117 173.3 424.697 174.76 424.697Z" fill="#3F3D56"/>
</svg>
