<svg width="123" height="490" viewBox="0 0 123 490" fill="none" xmlns="http://www.w3.org/2000/svg">
<path d="M62.7075 488.3C95.5679 488.475 122.217 486.603 122.231 484.117C122.244 481.632 95.6159 479.475 62.7554 479.3C29.8949 479.126 3.2455 480.998 3.23226 483.484C3.21903 485.969 29.847 488.125 62.7075 488.3Z" fill="#E6E6E6"/>
<path d="M20.0042 483.019L16.9832 483.039L19.8488 0.65345L22.8697 0.633557L20.0042 483.019Z" fill="#A6E1FA"/>
<path d="M102.577 482.475L99.5559 482.495L90.3376 0.189331L93.3586 0.169438L102.577 482.475Z" fill="#A6E1FA"/>
<path d="M89.7754 5.00493L19.2865 5.46912L19.3103 9.07769L89.7992 8.6135L89.7754 5.00493Z" fill="#A6E1FA"/>
<path d="M90.1873 67.5532L19.6984 68.0173L19.7221 71.6259L90.211 71.1617L90.1873 67.5532Z" fill="#A6E1FA"/>
<path d="M92.6133 130.088L19.1034 130.573L19.1272 134.181L92.637 133.697L92.6133 130.088Z" fill="#A6E1FA"/>
<path d="M95.451 255.172L18.9202 255.676L18.9439 259.285L95.4748 258.781L95.451 255.172Z" fill="#A6E1FA"/>
<path d="M95.039 192.624L18.5082 193.128L18.5319 196.736L95.0628 196.232L95.039 192.624Z" fill="#A6E1FA"/>
<path d="M95.8629 317.721L18.3251 318.231L18.3488 321.84L95.8866 321.329L95.8629 317.721Z" fill="#A6E1FA"/>
<path d="M97.2816 380.263L17.7299 380.787L17.7536 384.395L97.3054 383.872L97.2816 380.263Z" fill="#A6E1FA"/>
<path d="M100.334 447.605L17.761 448.149L17.7847 451.758L100.357 451.214L100.334 447.605Z" fill="#A6E1FA"/>
</svg>
