<svg width="128" height="141" viewBox="0 0 128 141" fill="none" xmlns="http://www.w3.org/2000/svg">
<path d="M106.273 80.7318C118.146 80.0503 127.598 76.4763 127.384 72.7489C127.17 69.0216 117.372 66.5524 105.498 67.2339C93.6251 67.9153 84.1734 71.4894 84.3874 75.2167C84.6013 78.9441 94.3998 81.4133 106.273 80.7318Z" fill="#2F2E41"/>
<path d="M96.2504 82.9496C100.06 59.4713 84.1161 37.3497 60.6378 33.5397C37.1594 29.7297 15.0379 45.674 11.2279 69.1523C7.41791 92.6306 23.3622 114.752 46.8405 118.562C70.3188 122.372 92.4404 106.428 96.2504 82.9496Z" fill="#2F2E41"/>
<path d="M34.114 109.851H47.1969L44.6369 137.923L34.114 133.292V109.851Z" fill="#2F2E41"/>
<path d="M45.0139 136.402C45.1507 134.148 40.3891 132.025 34.3785 131.661C28.368 131.296 23.3845 132.827 23.2477 135.081C23.1109 137.335 27.8725 139.458 33.8831 139.823C39.8937 140.188 44.8771 138.656 45.0139 136.402Z" fill="#2F2E41"/>
<path d="M62.637 109.923H75.721L73.161 137.996L62.637 133.365V109.923Z" fill="#2F2E41"/>
<path d="M84.1278 135.515C84.3818 133.271 79.737 130.903 73.7536 130.226C67.7702 129.549 62.7138 130.819 62.4598 133.063C62.2059 135.307 66.8505 137.674 72.834 138.352C78.8174 139.029 83.8739 137.759 84.1278 135.515Z" fill="#2F2E41"/>
<path d="M54.8293 79.8672C62.9585 79.8672 69.5485 73.2771 69.5485 65.1479C69.5485 57.0187 62.9585 50.4287 54.8293 50.4287C46.7001 50.4287 40.11 57.0187 40.11 65.1479C40.11 73.2771 46.7001 79.8672 54.8293 79.8672Z" fill="white"/>
<path d="M60.9064 71.8129C63.6162 71.8129 65.8128 69.6162 65.8128 66.9064C65.8128 64.1967 63.6162 62 60.9064 62C58.1967 62 56 64.1967 56 66.9064C56 69.6162 58.1967 71.8129 60.9064 71.8129Z" fill="#3F3D56"/>
<path d="M11.9626 35.9994C8.48509 20.4256 19.6012 4.68901 36.7912 0.850634C53.9811 -2.98775 70.7354 6.52567 74.2129 22.0995C77.6904 37.6733 66.298 43.4171 49.108 47.2555C31.9181 51.0938 15.44 51.5733 11.9626 35.9994Z" fill="#4CC9F0"/>
<path d="M6.54908 122.399C10.166 123.324 15.4882 114.735 18.4364 103.213C21.3846 91.6917 20.8425 81.6014 17.2256 80.6758C13.6086 79.7503 8.2865 88.34 5.33827 99.8615C2.39004 111.383 2.93214 121.473 6.54908 122.399Z" fill="#2F2E41"/>
<path d="M36.5094 93.3068C36.7047 96.7753 46.0214 103.121 55.9315 102.563C65.8416 102.005 74.5833 91.7166 74.3879 88.2481C74.1925 84.7796 65.134 89.4444 55.224 90.0026C45.3139 90.5608 36.314 89.8382 36.5094 93.3068Z" fill="white"/>
</svg>
