<svg width="145" height="130" viewBox="0 0 145 130" fill="none" xmlns="http://www.w3.org/2000/svg">
<path d="M115.898 36.5608C106.031 43.2697 99.9208 51.7619 102.25 55.5286C104.579 59.2953 114.466 56.9102 124.333 50.2013C134.199 43.4924 139.985 29.8787 137.656 26.112C135.326 22.3453 125.764 29.8519 115.898 36.5608Z" fill="#2F2E41"/>
<path d="M19.5522 89.3562C21.5869 77.6356 19.684 67.5633 15.3021 66.8591C10.9202 66.1549 5.71863 75.0856 3.68401 86.8062C1.64939 98.5269 3.55223 108.599 7.93412 109.303C12.316 110.007 17.5176 101.077 19.5522 89.3562Z" fill="#2F2E41"/>
<path d="M114.056 74.6179C118.354 51.2353 99.0912 29.3797 71.0316 25.8021C42.972 22.2244 16.7413 38.2795 12.4437 61.6621C8.14604 85.0447 27.4089 106.9 55.4684 110.478C83.528 114.056 109.759 98.0005 114.056 74.6179Z" fill="#2F2E41"/>
<path d="M54.2622 101.851H38.7062V125.292H54.2622V101.851Z" fill="#2F2E41"/>
<path d="M85.3741 101.851H69.8181V125.292H85.3741V101.851Z" fill="#2F2E41"/>
<path d="M51.6696 129.653C58.829 129.653 64.6329 127.823 64.6329 125.565C64.6329 123.307 58.829 121.476 51.6696 121.476C44.5101 121.476 38.7062 123.307 38.7062 125.565C38.7062 127.823 44.5101 129.653 51.6696 129.653Z" fill="#2F2E41"/>
<path d="M82.7815 129.109C89.941 129.109 95.7449 127.278 95.7449 125.02C95.7449 122.762 89.941 120.931 82.7815 120.931C75.622 120.931 69.8181 122.762 69.8181 125.02C69.8181 127.278 75.622 129.109 82.7815 129.109Z" fill="#2F2E41"/>
<path d="M13.4942 31.2675C8.94968 17.7408 23.4766 4.07267 45.9411 0.738822C68.4055 -2.59502 90.3005 5.66792 94.845 19.1946C99.3895 32.7213 84.5015 37.7102 62.0371 41.044C39.5727 44.3778 18.0387 44.7942 13.4942 31.2675Z" fill="#F72585"/>
<path d="M65.438 75.4384C75.1033 75.4384 82.9385 68.8484 82.9385 60.7192C82.9385 52.59 75.1033 46 65.438 46C55.7727 46 47.9374 52.59 47.9374 60.7192C47.9374 68.8484 55.7727 75.4384 65.438 75.4384Z" fill="white"/>
<path d="M71.8335 66.8128C75.0553 66.8128 77.6671 64.6161 77.6671 61.9064C77.6671 59.1966 75.0553 57 71.8335 57C68.6118 57 66 59.1966 66 61.9064C66 64.6161 68.6118 66.8128 71.8335 66.8128Z" fill="#3F3D56"/>
<path d="M67.5969 92.1271C67.4215 93.3809 65.473 95.363 64.7526 96.4079C64.0322 97.4528 62.4669 98.1933 61.3113 98.87C60.1557 99.5467 58.6319 99.695 57.2172 99.9004C55.8024 100.106 54.3236 100.058 52.8653 99.7612C51.407 99.464 49.9979 98.9227 48.7182 98.1682C47.4386 97.4136 46.3136 96.4607 45.4077 95.3639C44.5017 94.267 43.8325 93.0477 43.4382 91.7756C43.044 90.5036 42.311 89.0422 42.4885 87.7888L42.5733 86.1046C43.3211 80.836 50.8727 87.5114 57.0021 88.766C63.1315 90.0206 68.3447 86.8585 67.5969 92.1271Z" fill="white"/>
</svg>
