<svg width="119" height="125" viewBox="0 0 119 125" fill="none" xmlns="http://www.w3.org/2000/svg">
<path d="M12.2518 37.4819C5.48532 29.3695 2.06452 21.0711 4.61125 18.9469C7.15797 16.8227 14.7078 21.677 21.4744 29.7895C28.2409 37.9019 31.6617 46.2003 29.1149 48.3245C26.5682 50.4487 19.0183 45.5943 12.2518 37.4819Z" fill="#2F2E41"/>
<path d="M14.3874 73.58C11.0031 52.7249 25.166 33.075 46.021 29.6907C66.8761 26.3064 86.5259 40.4692 89.9102 61.3243C93.2946 82.1793 79.1318 101.829 58.2767 105.214C37.4217 108.598 17.7718 94.435 14.3874 73.58Z" fill="#2F2E41"/>
<path d="M69.5813 97.4756H57.9601L60.2341 122.411L69.5813 118.297V97.4756Z" fill="#2F2E41"/>
<path d="M49.9807 121.195C49.657 119.215 53.6739 116.911 58.9526 116.048C64.2313 115.185 68.773 116.09 69.0966 118.069C69.4203 120.049 65.4035 122.353 60.1248 123.216C54.846 124.079 50.3044 123.174 49.9807 121.195Z" fill="#2F2E41"/>
<path d="M25.1092 121.195C24.7855 119.215 28.8024 116.911 34.0811 116.048C39.3598 115.185 43.9015 116.09 44.2252 118.069C44.5489 120.049 40.532 122.353 35.2533 123.216C29.9746 124.079 25.4329 123.174 25.1092 121.195Z" fill="#2F2E41"/>
<path d="M44.2452 97.5398H32.6231L34.8971 122.476L44.2452 118.363V97.5398Z" fill="#2F2E41"/>
<path d="M50.9857 70.4613C43.7648 70.4613 37.9111 64.6076 37.9111 57.3867C37.9111 50.1657 43.7648 44.312 50.9857 44.312C58.2066 44.312 64.0603 50.1657 64.0603 57.3867C64.0603 64.6076 58.2066 70.4613 50.9857 70.4613Z" fill="white"/>
<path d="M45.3582 56.7165C42.9512 56.7165 41 54.7652 41 52.3582C41 49.9513 42.9512 48 45.3582 48C47.7652 48 49.7164 49.9513 49.7164 52.3582C49.7164 54.7652 47.7652 56.7165 45.3582 56.7165Z" fill="#3F3D56"/>
<path d="M103.701 54.1926C112.841 43.3588 110.556 26.3978 98.5981 16.3092C86.64 6.22069 69.5365 6.82489 60.3965 17.6588C51.2564 28.4927 57.8661 37.6985 69.8243 47.787C81.7824 57.8756 94.5607 65.0265 103.701 54.1926Z" fill="#7209B7"/>
<path d="M84.067 73.911C87.3796 73.7529 90.4732 82.1788 90.9768 92.7307C91.4804 103.283 89.2033 111.965 85.8908 112.123C82.5782 112.281 79.4846 103.855 78.981 93.3032C78.4773 82.7513 80.7544 74.0691 84.067 73.911Z" fill="#2F2E41"/>
<path d="M35 88.1794C35 85.0935 42.9456 79 51.7624 79C60.5792 79 68.8458 87.6877 68.8458 90.7735C68.8458 93.8593 60.5791 90.1748 51.7624 90.1748C42.9457 90.1748 35 91.2652 35 88.1794Z" fill="white"/>
</svg>
