<svg width="136" height="137" viewBox="0 0 136 137" fill="none" xmlns="http://www.w3.org/2000/svg">
<path d="M20.914 71.2596C32.4646 74.092 42.5489 73.4487 43.4381 69.8226C44.3273 66.1966 35.6846 60.9609 24.134 58.1285C12.5835 55.2961 2.49915 55.9395 1.60997 59.5656C0.720794 63.1916 9.36352 68.4272 20.914 71.2596Z" fill="#2F2E41"/>
<path d="M119.256 79.9496C123.066 56.4713 107.122 34.3497 83.6436 30.5397C60.1652 26.7297 38.0437 42.674 34.2337 66.1523C30.4237 89.6306 46.368 111.752 69.8463 115.562C93.3246 119.372 115.446 103.428 119.256 79.9496Z" fill="#2F2E41"/>
<path d="M54.6202 99.0962L64.6065 107.548L44.5167 127.322L39.4763 116.989L54.6202 99.0962Z" fill="#2F2E41"/>
<path d="M49.9216 134.146C51.9111 133.078 51.2147 127.911 48.3662 122.606C45.5177 117.301 41.5957 113.866 39.6062 114.934C37.6167 116.002 38.3131 121.169 41.1616 126.474C44.0101 131.78 47.9321 135.214 49.9216 134.146Z" fill="#2F2E41"/>
<path d="M64.0005 108.206L75.5192 102L86.5804 127.928L75.119 128.843L64.0005 108.206Z" fill="#2F2E41"/>
<path d="M97.1812 127.034C96.8152 124.806 91.7015 123.791 85.7595 124.767C79.8174 125.743 75.2971 128.34 75.6631 130.568C76.029 132.797 81.1427 133.812 87.0847 132.836C93.0267 131.86 97.5471 129.263 97.1812 127.034Z" fill="#2F2E41"/>
<path d="M94.7207 75.4385C102.85 75.4385 109.44 68.8484 109.44 60.7192C109.44 52.59 102.85 46 94.7207 46C86.5915 46 80.0015 52.59 80.0015 60.7192C80.0015 68.8484 86.5915 75.4385 94.7207 75.4385Z" fill="white"/>
<path d="M100.908 65.8129C103.618 65.8129 105.814 63.6162 105.814 60.9064C105.814 58.1967 103.618 56 100.908 56C98.1981 56 96.0015 58.1967 96.0015 60.9064C96.0015 63.6162 98.1981 65.8129 100.908 65.8129Z" fill="#3F3D56"/>
<path d="M30.0212 46.1702C22.8754 37.6081 31.2304 23.5144 48.6826 14.691C66.1348 5.86761 86.0754 5.65581 93.2211 14.2179C100.367 22.7801 89.5083 30.6527 72.0561 39.4761C54.6039 48.2994 37.167 54.7323 30.0212 46.1702Z" fill="#0E6BA8"/>
<path d="M135.177 88.4715C135.239 84.7386 125.65 81.5529 113.758 81.3562C101.867 81.1595 92.1776 84.0262 92.1158 87.7592C92.0541 91.4921 101.644 94.6778 113.535 94.8745C125.426 95.0712 135.116 92.2045 135.177 88.4715Z" fill="#2F2E41"/>
<path d="M92.3403 97.2411C92.7958 93.7971 84.8276 85.8234 74.9875 84.5219C65.1474 83.2203 54.6388 91.696 54.1832 95.14C53.7277 98.584 63.4978 95.6922 73.3378 96.9937C83.1779 98.2952 91.8847 100.685 92.3403 97.2411Z" fill="white"/>
</svg>
