<svg width="122" height="138" viewBox="0 0 122 138" fill="none" xmlns="http://www.w3.org/2000/svg">
<path d="M96.522 94.9086C105.896 102.227 115.358 105.775 117.655 102.832C119.953 99.8893 114.216 91.5706 104.842 84.2518C95.4683 76.933 86.0066 73.3856 83.709 76.3284C81.4114 79.2712 87.148 87.5898 96.522 94.9086Z" fill="#2F2E41"/>
<path d="M91.9211 82.9496C95.7311 59.4713 79.7868 37.3497 56.3085 33.5397C32.8302 29.7297 10.7086 45.674 6.89863 69.1523C3.08862 92.6306 19.0329 114.752 42.5112 118.562C65.9895 122.372 88.1111 106.428 91.9211 82.9496Z" fill="#2F2E41"/>
<path d="M42.8684 109.851H29.7847V133.292H42.8684V109.851Z" fill="#2F2E41"/>
<path d="M69.0359 109.851H55.9521V133.292H69.0359V109.851Z" fill="#2F2E41"/>
<path d="M40.6878 137.653C46.7094 137.653 51.5909 135.823 51.5909 133.565C51.5909 131.307 46.7094 129.476 40.6878 129.476C34.6662 129.476 29.7847 131.307 29.7847 133.565C29.7847 135.823 34.6662 137.653 40.6878 137.653Z" fill="#2F2E41"/>
<path d="M66.8553 137.109C72.8769 137.109 77.7584 135.278 77.7584 133.02C77.7584 130.762 72.8769 128.931 66.8553 128.931C60.8337 128.931 55.9521 130.762 55.9521 133.02C55.9521 135.278 60.8337 137.109 66.8553 137.109Z" fill="#2F2E41"/>
<path d="M50.5005 79.8666C58.6297 79.8666 65.2197 73.2766 65.2197 65.1474C65.2197 57.0182 58.6297 50.4282 50.5005 50.4282C42.3713 50.4282 35.7812 57.0182 35.7812 65.1474C35.7812 73.2766 42.3713 79.8666 50.5005 79.8666Z" fill="white"/>
<path d="M57.4552 75.8128C60.165 75.8128 62.3617 73.6161 62.3617 70.9064C62.3617 68.1966 60.165 66 57.4552 66C54.7455 66 52.5488 68.1966 52.5488 70.9064C52.5488 73.6161 54.7455 75.8128 57.4552 75.8128Z" fill="#3F3D56"/>
<path d="M7.63328 35.9994C4.1558 20.4256 15.272 4.68901 32.4619 0.850633C49.6518 -2.98775 66.4061 6.52568 69.8836 22.0995C73.361 37.6733 61.9687 43.4171 44.7787 47.2555C27.5888 51.0938 11.1108 51.5733 7.63328 35.9994Z" fill="#2200FF"/>
<path d="M66.5096 103.277C65.1236 106.744 72.952 113.133 83.9948 117.548C95.0376 121.963 105.113 122.732 106.499 119.265C107.885 115.799 100.057 109.409 89.0141 104.994C77.9713 100.579 67.8957 99.8103 66.5096 103.277Z" fill="#2F2E41"/>
<path d="M28.2554 91.5879C28.2554 95.8031 39.1087 104.126 51.1519 104.126C63.1952 104.126 74.487 92.2595 74.487 88.0444C74.487 83.8293 63.1951 88.8621 51.1519 88.8621C39.1087 88.8621 28.2554 87.3728 28.2554 91.5879Z" fill="white"/>
</svg>
