<svg width="82" height="158" viewBox="0 0 82 158" fill="none" xmlns="http://www.w3.org/2000/svg">
<path d="M77.7625 57.6358L44.2695 26.4861L19.7837 3.71391C18.3546 2.38351 16.6049 1.49467 14.7373 1.15043C12.8697 0.806196 10.9607 1.02062 9.23158 1.7689C7.50248 2.51718 6.02398 3.76867 4.96762 5.37828C3.91126 6.9879 3.32016 8.88978 3.26291 10.8634L2.46432 37.47L0.830492 90.9381C0.770236 93.067 1.33267 95.1812 2.44245 96.9985C3.55223 98.8157 5.15663 100.25 7.04157 101.109C8.92651 101.968 11.0022 102.211 12.9916 101.806C14.981 101.401 16.7895 100.368 18.1756 98.8431L22.4887 94.0829C23.3574 93.1271 24.4506 92.4258 25.6648 92.0452C26.879 91.6646 28.1739 91.6175 29.4269 91.9083C30.6799 92.199 31.8496 92.818 32.8249 93.7066C33.8001 94.5952 34.5487 95.724 34.9998 96.986L54.1779 150.576C55.0635 153.036 56.7842 155.087 59.0047 156.328C61.2253 157.57 63.7868 157.913 66.1901 157.292C66.4807 157.215 66.7644 157.113 67.0724 157.005L74.2018 154.396C75.4312 153.944 76.5571 153.24 77.5149 152.325C78.4727 151.41 79.2436 150.301 79.7835 149.062C80.3234 147.824 80.6219 146.479 80.6615 145.106C80.7011 143.733 80.4812 142.359 80.0145 141.061L60.2219 85.7233C59.7559 84.4237 59.6221 83.0272 59.8341 81.6745C60.0461 80.3219 60.5963 79.0607 61.4294 78.018C62.2625 76.9753 63.3491 76.1878 64.5798 75.7349C65.8105 75.282 67.1418 75.1795 68.4398 75.4379L69.639 75.6681C71.7893 76.0923 73.9951 75.773 75.9207 74.7585C77.8462 73.7441 79.3862 72.0902 80.306 70.0485C81.2258 68.0069 81.4751 65.6893 81.0159 63.4486C80.5568 61.2078 79.4143 59.1667 77.7625 57.6358Z" fill="#CCCCCC"/>
</svg>
