<svg width="257" height="199" viewBox="0 0 257 199" fill="none" xmlns="http://www.w3.org/2000/svg">
<path d="M46.3035 198.747C20.7308 198.747 -1.52588e-05 197.858 -1.52588e-05 196.761C-1.52588e-05 195.664 20.7308 194.775 46.3035 194.775C71.8763 194.775 92.6071 195.664 92.6071 196.761C92.6071 197.858 71.8763 198.747 46.3035 198.747Z" fill="#E6E6E6"/>
<path d="M46.5254 195.088L254.162 67.8706C255.181 67.2447 255.94 66.185 256.272 64.9241C256.604 63.6632 256.483 62.304 255.934 61.1447L228.168 2.60673C227.617 1.44886 226.685 0.586542 225.575 0.208939C224.466 -0.168663 223.27 -0.0307281 222.25 0.592501L14.6134 127.81C13.5946 128.436 12.8359 129.496 12.5036 130.757C12.1714 132.017 12.2927 133.377 12.8411 134.536L40.6074 193.074C41.1582 194.232 42.0905 195.094 43.1999 195.472C44.3094 195.849 45.5053 195.711 46.5254 195.088ZM223.079 2.34056C223.691 1.96655 224.409 1.8837 225.074 2.11026C225.74 2.33683 226.3 2.85429 226.63 3.54906L254.396 62.087C254.725 62.7826 254.798 63.5981 254.599 64.3547C254.399 65.1112 253.944 65.7471 253.333 66.1226L45.6963 193.34C45.0842 193.714 44.3666 193.797 43.701 193.57C43.0353 193.344 42.4759 192.826 42.1455 192.132L14.3792 133.594C14.0502 132.898 13.9773 132.083 14.1767 131.326C14.376 130.569 14.8312 129.934 15.4426 129.558L223.079 2.34056Z" fill="#E6E6E6"/>
<path d="M211.29 71.574C201.158 71.574 192.943 62.2385 192.943 50.7224C192.943 39.2064 201.158 29.8708 211.29 29.8708C221.423 29.8708 229.637 39.2064 229.637 50.7224C229.637 62.2385 221.423 71.574 211.29 71.574Z" fill="#2200FF"/>
<path d="M168.189 61.3382C168.542 61.1215 168.93 60.986 169.329 60.9395C169.729 60.893 170.132 60.9364 170.517 61.0672C170.902 61.1981 171.26 61.4139 171.572 61.7022C171.883 61.9905 172.142 62.3457 172.332 62.7475C172.523 63.1494 172.642 63.5899 172.683 64.0441C172.723 64.4982 172.685 64.9571 172.57 65.3943C172.454 65.8316 172.264 66.2388 172.011 66.5926C171.757 66.9464 171.444 67.2399 171.091 67.4564L44.2018 145.2C43.8483 145.417 43.4607 145.553 43.0611 145.599C42.6615 145.646 42.2579 145.602 41.8731 145.471C41.4883 145.34 41.1299 145.125 40.8185 144.836C40.5071 144.548 40.2486 144.193 40.058 143.791C39.8674 143.389 39.7484 142.949 39.7076 142.495C39.6669 142.04 39.7053 141.582 39.8206 141.144C39.9359 140.707 40.1259 140.3 40.3797 139.946C40.6335 139.592 40.9461 139.299 41.2998 139.082L168.189 61.3382Z" fill="#E6E6E6"/>
<path d="M176.895 79.6928C177.609 79.2554 178.446 79.1583 179.223 79.4227C180 79.6871 180.652 80.2914 181.037 81.1028C181.422 81.9141 181.508 82.8659 181.275 83.7489C181.042 84.6319 180.511 85.3736 179.797 85.8109L52.9079 163.555C52.5544 163.771 52.1669 163.907 51.7674 163.953C51.3679 163.999 50.9644 163.956 50.5797 163.825C50.195 163.694 49.8368 163.478 49.5255 163.19C49.2142 162.902 48.9559 162.547 48.7653 162.145C48.5748 161.743 48.4557 161.303 48.4149 160.849C48.3741 160.395 48.4124 159.936 48.5276 159.499C48.6428 159.062 48.8327 158.655 49.0863 158.301C49.34 157.947 49.6524 157.653 50.0059 157.437L176.895 79.6928Z" fill="#E6E6E6"/>
</svg>
