<svg width="1217" height="619" viewBox="0 0 1217 619" fill="none" xmlns="http://www.w3.org/2000/svg">
<path d="M840 120H190V225H840V120Z" stroke="#3F3D56" stroke-miterlimit="10"/>
<path d="M1030 140H144V245H1030V140Z" fill="#2200FF"/>
<path d="M27 26C32.5229 26 37 22.4183 37 18C37 13.5817 32.5229 10 27 10C21.4772 10 17 13.5817 17 18C17 22.4183 21.4772 26 27 26Z" fill="#2200FF"/>
<path d="M62 26C67.5229 26 72 22.4183 72 18C72 13.5817 67.5229 10 62 10C56.4772 10 52 13.5817 52 18C52 22.4183 56.4772 26 62 26Z" fill="#2200FF"/>
<path d="M96 26C101.523 26 106 22.4183 106 18C106 13.5817 101.523 10 96 10C90.4772 10 86 13.5817 86 18C86 22.4183 90.4772 26 96 26Z" fill="#2200FF"/>
<path d="M1216 1H8V618H1216V1Z" stroke="#A6E1FA" stroke-miterlimit="10"/>
<path d="M0 32H1208" stroke="#A6E1FA" stroke-miterlimit="10"/>
<path d="M30 23C35.5229 23 40 19.4183 40 15C40 10.5817 35.5229 7 30 7C24.4772 7 20 10.5817 20 15C20 19.4183 24.4772 23 30 23Z" stroke="#3F3D56" stroke-miterlimit="10"/>
<path d="M64.5 23C70.299 23 75 19.4183 75 15C75 10.5817 70.299 7 64.5 7C58.701 7 54 10.5817 54 15C54 19.4183 58.701 23 64.5 23Z" stroke="#3F3D56" stroke-miterlimit="10"/>
<path d="M99 23C104.523 23 109 19.4183 109 15C109 10.5817 104.523 7 99 7C93.4772 7 89 10.5817 89 15C89 19.4183 93.4772 23 99 23Z" stroke="#3F3D56" stroke-miterlimit="10"/>
<path d="M64 32V617" stroke="#A6E1FA" stroke-miterlimit="10"/>
<path d="M439 300H227V323H439V300Z" fill="#F2F2F2"/>
<path d="M771 300H559V323H771V300Z" fill="#F2F2F2"/>
<path d="M772 386H228V408H772V386Z" fill="#F2F2F2"/>
</svg>
