<svg width="112" height="141" viewBox="0 0 112 141" fill="none" xmlns="http://www.w3.org/2000/svg">
<g id="Fulfi-hi">
<path id="Vector" d="M103.317 46.9416C107.563 35.8327 108.178 25.7465 104.691 24.4136C101.203 23.0806 94.9342 31.0056 90.6881 42.1145C86.4421 53.2234 85.8271 63.3096 89.3145 64.6425C92.802 65.9755 99.0712 58.0505 103.317 46.9416Z" fill="#2F2E41"/>
<path id="Vector_2" d="M96.2505 82.9496C100.06 59.4713 84.1161 37.3497 60.6378 33.5397C37.1595 29.7297 15.038 45.674 11.228 69.1523C7.41797 92.6306 23.3622 114.752 46.8406 118.562C70.3189 122.372 92.4405 106.428 96.2505 82.9496Z" fill="#2F2E41"/>
<path id="Vector_3" d="M34.114 109.851H47.197L44.637 137.923L34.114 133.292V109.851Z" fill="#2F2E41"/>
<path id="Vector_4" d="M45.0139 136.402C45.1507 134.148 40.3891 132.025 34.3785 131.661C28.368 131.296 23.3845 132.827 23.2477 135.081C23.1109 137.335 27.8725 139.458 33.8831 139.823C39.8937 140.188 44.8771 138.656 45.0139 136.402Z" fill="#2F2E41"/>
<path id="Vector_5" d="M62.637 109.923H75.721L73.161 137.996L62.637 133.365V109.923Z" fill="#2F2E41"/>
<path id="Vector_6" d="M84.1278 135.515C84.3818 133.271 79.737 130.903 73.7536 130.226C67.7702 129.549 62.7138 130.819 62.4598 133.063C62.2059 135.307 66.8505 137.674 72.834 138.352C78.8174 139.029 83.8739 137.759 84.1278 135.515Z" fill="#2F2E41"/>
<path id="Vector_7" d="M54.8293 79.8672C62.9585 79.8672 69.5486 73.2771 69.5486 65.1479C69.5486 57.0187 62.9585 50.4287 54.8293 50.4287C46.7001 50.4287 40.1101 57.0187 40.1101 65.1479C40.1101 73.2771 46.7001 79.8672 54.8293 79.8672Z" fill="white"/>
<path id="Vector_8" d="M54.8295 70.0541C57.5393 70.0541 59.7359 67.8574 59.7359 65.1476C59.7359 62.4379 57.5393 60.2412 54.8295 60.2412C52.1198 60.2412 49.9231 62.4379 49.9231 65.1476C49.9231 67.8574 52.1198 70.0541 54.8295 70.0541Z" fill="#3F3D56"/>
<path id="Vector_9" d="M11.9626 35.9994C8.48515 20.4256 19.6013 4.68901 36.7912 0.850634C53.9812 -2.98775 70.7355 6.52567 74.2129 22.0995C77.6904 37.6733 66.298 43.4171 49.1081 47.2555C31.9181 51.0938 15.4401 51.5733 11.9626 35.9994Z" fill="#F2F2F2"/>
<path id="Vector_10" d="M6.54908 122.399C10.166 123.324 15.4882 114.735 18.4364 103.213C21.3846 91.6917 20.8425 81.6014 17.2256 80.6758C13.6086 79.7503 8.2865 88.34 5.33827 99.8615C2.39004 111.383 2.93214 121.473 6.54908 122.399Z" fill="#2F2E41"/>
<path id="Vector_11" d="M36.5094 93.3067C36.7047 96.7752 46.0214 103.121 55.9315 102.563C65.8416 102.005 74.5833 91.7165 74.3879 88.248C74.1925 84.7796 65.134 89.4444 55.224 90.0026C45.3139 90.5608 36.314 89.8382 36.5094 93.3067Z" fill="white"/>
</g>
</svg>
