<svg width="135" height="141" viewBox="0 0 135 141" fill="none" xmlns="http://www.w3.org/2000/svg">
<g id="Fulfi-look-up">
<path id="Vector" d="M120.788 42.1965C128.405 33.0636 132.256 23.7214 129.389 21.33C126.522 18.9386 118.023 24.4036 110.405 33.5364C102.787 42.6693 98.9363 52.0115 101.803 54.4029C104.67 56.7943 113.17 51.3293 120.788 42.1965Z" fill="#2F2E41"/>
<path id="Vector_2" d="M118.383 82.8351C122.193 59.3568 106.249 37.2353 82.7708 33.4253C59.2924 29.6153 37.1709 45.5596 33.3609 69.0379C29.5509 92.5162 45.4952 114.638 68.9735 118.448C92.4518 122.258 114.573 106.313 118.383 82.8351Z" fill="#2F2E41"/>
<path id="Vector_3" d="M56.2469 109.737H69.3299L66.7699 137.809L56.2469 133.178V109.737Z" fill="#2F2E41"/>
<path id="Vector_4" d="M78.313 136.44C78.6774 134.211 74.1553 131.617 68.2125 130.645C62.2698 129.673 57.1569 130.692 56.7925 132.921C56.4281 135.149 60.9502 137.743 66.8929 138.715C72.8356 139.687 77.9486 138.668 78.313 136.44Z" fill="#2F2E41"/>
<path id="Vector_5" d="M106.313 136.44C106.677 134.211 102.155 131.617 96.2125 130.645C90.2698 129.673 85.1569 130.692 84.7925 132.921C84.4281 135.149 88.9502 137.743 94.8929 138.715C100.836 139.687 105.949 138.668 106.313 136.44Z" fill="#2F2E41"/>
<path id="Vector_6" d="M84.7699 109.809H97.8539L95.2939 137.882L84.7699 133.251V109.809Z" fill="#2F2E41"/>
<path id="Vector_7" d="M77.1816 79.3241C85.3108 79.3241 91.9008 72.7341 91.9008 64.6049C91.9008 56.4757 85.3108 49.8856 77.1816 49.8856C69.0524 49.8856 62.4624 56.4757 62.4624 64.6049C62.4624 72.7341 69.0524 79.3241 77.1816 79.3241Z" fill="white"/>
<path id="Vector_8" d="M80.3688 61.6985C83.0786 61.6985 85.2752 59.5018 85.2752 56.7921C85.2752 54.0823 83.0786 51.8856 80.3688 51.8856C77.6591 51.8856 75.4624 54.0823 75.4624 56.7921C75.4624 59.5018 77.6591 61.6985 80.3688 61.6985Z" fill="#3F3D56"/>
<path id="Vector_9" d="M17.8357 61.0094C7.54602 48.8128 10.1179 29.7184 23.5802 18.3609C37.0425 7.00332 56.2973 7.68352 66.5871 19.8801C76.8768 32.0768 69.4357 42.4406 55.9734 53.7981C42.5111 65.1556 28.1255 73.2061 17.8357 61.0094Z" fill="#7209B7"/>
<path id="Vector_10" d="M39.9391 83.2078C36.2098 83.0298 32.7271 92.5155 32.1601 104.395C31.5931 116.274 34.1567 126.048 37.8859 126.226C41.6152 126.404 45.0979 116.918 45.6649 105.039C46.2318 93.1601 43.6683 83.3858 39.9391 83.2078Z" fill="#2F2E41"/>
<path id="Vector_11" d="M96.8847 98.1429C96.8847 94.6689 87.9397 87.8089 78.0139 87.8089C68.0881 87.8089 58.7816 97.5894 58.7816 101.063C58.7816 104.537 68.0882 100.389 78.0139 100.389C87.9396 100.389 96.8847 101.617 96.8847 98.1429Z" fill="white"/>
</g>
</svg>
