<svg width="129" height="149" viewBox="0 0 129 149" fill="none" xmlns="http://www.w3.org/2000/svg">
<g id="Fulfi-scared">
<path id="Vector" d="M20.4666 107.942C24.7127 96.8327 25.3277 86.7465 21.8402 85.4136C18.3528 84.0806 12.0836 92.0056 7.83756 103.114C3.59151 114.223 2.97653 124.31 6.46395 125.643C9.95137 126.975 16.2206 119.05 20.4666 107.942Z" fill="#2F2E41"/>
<path id="Vector_2" d="M105.4 82.9496C109.21 59.4713 93.2658 37.3497 69.7875 33.5397C46.3092 29.7297 24.1876 45.674 20.3776 69.1523C16.5676 92.6306 32.5119 114.752 55.9902 118.562C79.4685 122.372 101.59 106.428 105.4 82.9496Z" fill="#2F2E41"/>
<path id="Vector_3" d="M43.2637 109.851H56.3467L53.7867 137.923L43.2637 133.292V109.851Z" fill="#2F2E41"/>
<path id="Vector_4" d="M54.3239 146.171C56.3134 145.103 55.617 139.936 52.7685 134.631C49.92 129.326 45.998 125.891 44.0085 126.959C42.019 128.027 42.7154 133.194 45.564 138.499C48.4125 143.804 52.3345 147.239 54.3239 146.171Z" fill="#2F2E41"/>
<path id="Vector_5" d="M71.7866 109.923H84.8706L82.3106 137.996L71.7866 133.365V109.923Z" fill="#2F2E41"/>
<path id="Vector_6" d="M82.8479 146.244C84.8374 145.176 84.141 140.009 81.2924 134.704C78.4439 129.398 74.5219 125.963 72.5325 127.032C70.543 128.1 71.2394 133.267 74.0879 138.572C76.9364 143.877 80.8584 147.312 82.8479 146.244Z" fill="#2F2E41"/>
<path id="Vector_7" d="M63.979 79.8672C72.1082 79.8672 78.6982 73.2771 78.6982 65.1479C78.6982 57.0187 72.1082 50.4287 63.979 50.4287C55.8498 50.4287 49.2598 57.0187 49.2598 65.1479C49.2598 73.2771 55.8498 79.8672 63.979 79.8672Z" fill="white"/>
<path id="Vector_8" d="M72.0558 69.8129C74.7656 69.8129 76.9622 67.6162 76.9622 64.9064C76.9622 62.1967 74.7656 60 72.0558 60C69.3461 60 67.1494 62.1967 67.1494 64.9064C67.1494 67.6162 69.3461 69.8129 72.0558 69.8129Z" fill="#3F3D56"/>
<path id="Vector_9" d="M21.1123 35.9994C17.6348 20.4256 28.7509 4.68901 45.9409 0.850634C63.1308 -2.98775 79.8851 6.52567 83.3626 22.0995C86.8401 37.6733 75.4477 43.4171 58.2577 47.2555C41.0678 51.0938 24.5898 51.5733 21.1123 35.9994Z" fill="#3A0CA3"/>
<path id="Vector_10" d="M123.174 116.659C126.177 114.44 122.884 104.887 115.818 95.3211C108.753 85.7549 100.59 79.7981 97.587 82.0163C94.5839 84.2344 97.8773 93.7875 104.943 103.354C112.009 112.92 120.171 118.877 123.174 116.659Z" fill="#2F2E41"/>
<path id="Vector_11" d="M78.1494 99.2931C78.1494 95.4966 70.6371 88 62.3012 88C53.9652 88 46.1494 98.6882 46.1494 102.485C46.1494 106.281 53.9653 101.748 62.3012 101.748C70.6371 101.748 78.1494 103.09 78.1494 99.2931Z" fill="white"/>
</g>
</svg>
