<svg width="126" height="138" viewBox="0 0 126 138" fill="none" xmlns="http://www.w3.org/2000/svg">
<g id="fulfi-smiled">
<path id="Vector" d="M117.945 45.9426C122.191 34.8337 122.806 24.7475 119.318 23.4146C115.831 22.0816 109.562 30.0066 105.316 41.1155C101.07 52.2244 100.455 62.3106 103.942 63.6435C107.43 64.9765 113.699 57.0515 117.945 45.9426Z" fill="#2F2E41"/>
<path id="Vector_2" d="M114.334 82.9496C118.144 59.4713 102.2 37.3497 78.7217 33.5397C55.2434 29.7297 33.1218 45.674 29.3118 69.1523C25.5018 92.6306 41.4461 114.752 64.9244 118.562C88.4027 122.372 110.524 106.428 114.334 82.9496Z" fill="#2F2E41"/>
<path id="Vector_3" d="M65.2816 109.851H52.1979V133.292H65.2816V109.851Z" fill="#2F2E41"/>
<path id="Vector_4" d="M91.4491 109.851H78.3654V133.292H91.4491V109.851Z" fill="#2F2E41"/>
<path id="Vector_5" d="M63.101 137.653C69.1227 137.653 74.0042 135.823 74.0042 133.565C74.0042 131.307 69.1227 129.476 63.101 129.476C57.0794 129.476 52.1979 131.307 52.1979 133.565C52.1979 135.823 57.0794 137.653 63.101 137.653Z" fill="#2F2E41"/>
<path id="Vector_6" d="M89.2685 137.109C95.2901 137.109 100.172 135.278 100.172 133.02C100.172 130.762 95.2901 128.931 89.2685 128.931C83.2469 128.931 78.3654 130.762 78.3654 133.02C78.3654 135.278 83.2469 137.109 89.2685 137.109Z" fill="#2F2E41"/>
<path id="Vector_7" d="M72.9137 79.8666C81.0429 79.8666 87.6329 73.2766 87.6329 65.1474C87.6329 57.0182 81.0429 50.4282 72.9137 50.4282C64.7845 50.4282 58.1945 57.0182 58.1945 65.1474C58.1945 73.2766 64.7845 79.8666 72.9137 79.8666Z" fill="white"/>
<path id="Vector_8" d="M72.9134 70.054C75.6231 70.054 77.8198 67.8573 77.8198 65.1476C77.8198 62.4378 75.6231 60.2412 72.9134 60.2412C70.2036 60.2412 68.007 62.4378 68.007 65.1476C68.007 67.8573 70.2036 70.054 72.9134 70.054Z" fill="#3F3D56"/>
<path id="Vector_9" d="M30.0465 35.9994C26.569 20.4256 37.6852 4.68901 54.8751 0.850633C72.065 -2.98775 88.8193 6.52568 92.2968 22.0995C95.7742 37.6733 84.3819 43.4171 67.1919 47.2555C50.002 51.0938 33.524 51.5733 30.0465 35.9994Z" fill="#2200FF"/>
<path id="Vector_10" d="M42.7715 65.2954C44.3714 61.9221 36.9575 55.0561 26.212 49.9597C15.4666 44.8633 5.45883 43.4665 3.85892 46.8398C2.25902 50.2131 9.67286 57.0792 20.4183 62.1755C31.1637 67.2719 41.1715 68.6688 42.7715 65.2954Z" fill="#2F2E41"/>
<path id="Vector_11" d="M50.6686 91.5879C50.6686 95.8031 61.5219 104.126 73.5651 104.126C85.6084 104.126 96.9003 92.2595 96.9003 88.0444C96.9003 83.8293 85.6083 88.8621 73.5651 88.8621C61.5219 88.8621 50.6686 87.3728 50.6686 91.5879Z" fill="white"/>
</g>
</svg>
