<svg width="126" height="138" viewBox="0 0 126 138" fill="none" xmlns="http://www.w3.org/2000/svg">
<g id="fulfi-back">
<path id="Vector" d="M117.563 45.9426C121.809 34.8337 122.424 24.7475 118.937 23.4146C115.449 22.0816 109.18 30.0066 104.934 41.1155C100.688 52.2244 100.073 62.3106 103.561 63.6435C107.048 64.9765 113.317 57.0515 117.563 45.9426Z" fill="#2F2E41"/>
<path id="Vector_2" d="M113.953 82.9496C117.763 59.4713 101.818 37.3497 78.3401 33.5397C54.8618 29.7297 32.7403 45.674 28.9302 69.1523C25.1202 92.6306 41.0645 114.752 64.5428 118.562C88.0211 122.372 110.143 106.428 113.953 82.9496Z" fill="#2F2E41"/>
<path id="Vector_3" d="M64.9 109.851H51.8163V133.292H64.9V109.851Z" fill="#2F2E41"/>
<path id="Vector_4" d="M91.0675 109.851H77.9838V133.292H91.0675V109.851Z" fill="#2F2E41"/>
<path id="Vector_5" d="M62.7194 137.653C68.7411 137.653 73.6226 135.823 73.6226 133.565C73.6226 131.307 68.7411 129.476 62.7194 129.476C56.6978 129.476 51.8163 131.307 51.8163 133.565C51.8163 135.823 56.6978 137.653 62.7194 137.653Z" fill="#2F2E41"/>
<path id="Vector_6" d="M88.8869 137.109C94.9085 137.109 99.79 135.278 99.79 133.02C99.79 130.762 94.9085 128.931 88.8869 128.931C82.8653 128.931 77.9838 130.762 77.9838 133.02C77.9838 135.278 82.8653 137.109 88.8869 137.109Z" fill="#2F2E41"/>
<path id="Vector_7" d="M29.6649 35.9994C26.1874 20.4256 37.3036 4.68901 54.4935 0.850633C71.6834 -2.98775 88.4377 6.52568 91.9152 22.0995C95.3927 37.6733 84.0003 43.4171 66.8103 47.2555C49.6204 51.0938 33.1424 51.5733 29.6649 35.9994Z" fill="#2200FF"/>
<path id="Vector_8" d="M42.3899 65.2954C43.9898 61.9221 36.5759 55.0561 25.8305 49.9597C15.085 44.8633 5.07724 43.4665 3.47733 46.8398C1.87743 50.2131 9.29127 57.0792 20.0367 62.1755C30.7821 67.2719 40.79 68.6688 42.3899 65.2954Z" fill="#2F2E41"/>
</g>
</svg>
