<svg width="124" height="130" viewBox="0 0 124 130" fill="none" xmlns="http://www.w3.org/2000/svg">
<g id="fulfi-big-happy">
<path id="Vector" d="M120.703 84.3632C118.926 72.5647 113.916 63.3803 109.513 63.8494C105.109 64.3184 102.979 74.2632 104.755 86.0617C106.532 97.8602 111.542 107.045 115.946 106.576C120.349 106.106 122.479 96.1617 120.703 84.3632Z" fill="#2F2E41"/>
<path id="Vector_2" d="M19.6512 89.3562C21.6859 77.6356 19.783 67.5633 15.4011 66.8591C11.0192 66.1549 5.81763 75.0856 3.78301 86.8062C1.74838 98.5269 3.65123 108.599 8.03312 109.303C12.415 110.007 17.6166 101.077 19.6512 89.3562Z" fill="#2F2E41"/>
<path id="Vector_3" d="M114.155 74.6179C118.453 51.2353 99.1902 29.3797 71.1306 25.8021C43.071 22.2244 16.8403 38.2795 12.5427 61.6621C8.24504 85.0447 27.5079 106.9 55.5674 110.478C83.627 114.056 109.858 98.0005 114.155 74.6179Z" fill="#2F2E41"/>
<path id="Vector_4" d="M54.3612 101.851H38.8052V125.292H54.3612V101.851Z" fill="#2F2E41"/>
<path id="Vector_5" d="M85.4731 101.851H69.9171V125.292H85.4731V101.851Z" fill="#2F2E41"/>
<path id="Vector_6" d="M51.7686 129.653C58.928 129.653 64.7319 127.823 64.7319 125.565C64.7319 123.307 58.928 121.476 51.7686 121.476C44.6091 121.476 38.8052 123.307 38.8052 125.565C38.8052 127.823 44.6091 129.653 51.7686 129.653Z" fill="#2F2E41"/>
<path id="Vector_7" d="M82.8805 129.109C90.04 129.109 95.8439 127.278 95.8439 125.02C95.8439 122.762 90.04 120.931 82.8805 120.931C75.721 120.931 69.9171 122.762 69.9171 125.02C69.9171 127.278 75.721 129.109 82.8805 129.109Z" fill="#2F2E41"/>
<path id="Vector_8" d="M13.5932 31.2675C9.04868 17.7408 23.5756 4.07267 46.0401 0.738822C68.5045 -2.59502 90.3995 5.66792 94.944 19.1946C99.4885 32.7213 84.6005 37.7102 62.1361 41.044C39.6717 44.3778 18.1377 44.7942 13.5932 31.2675Z" fill="#2200FF"/>
<path id="Vector_9" d="M65.537 75.4384C75.2023 75.4384 83.0376 68.8484 83.0376 60.7192C83.0376 52.59 75.2023 46 65.537 46C55.8718 46 48.0365 52.59 48.0365 60.7192C48.0365 68.8484 55.8718 75.4384 65.537 75.4384Z" fill="white"/>
<path id="Vector_10" d="M65.5368 65.6258C68.7585 65.6258 71.3703 63.4291 71.3703 60.7194C71.3703 58.0096 68.7585 55.813 65.5368 55.813C62.315 55.813 59.7032 58.0096 59.7032 60.7194C59.7032 63.4291 62.315 65.6258 65.5368 65.6258Z" fill="#3F3D56"/>
<path id="Vector_11" d="M77.2573 87.3905C77.5262 88.6277 76.3831 91.1612 76.0684 92.3907C75.7536 93.6202 74.5409 94.8562 73.6905 95.8907C72.84 96.9252 71.4615 97.5911 70.205 98.2729C68.9485 98.9548 67.5445 99.4216 66.0734 99.6469C64.6022 99.8721 63.0928 99.8513 61.6312 99.5857C60.1697 99.3201 58.7846 98.8148 57.5553 98.0988C56.326 97.3828 55.2765 96.47 54.4668 95.4127C53.6571 94.3554 52.4641 93.2375 52.1974 92L51.6946 90.3904C50.5749 85.1881 59.9687 88.8412 66.1539 87.8994C72.3391 86.9577 76.1377 82.1883 77.2573 87.3905Z" fill="white"/>
</g>
</svg>
