<svg width="136" height="137" viewBox="0 0 136 137" fill="none" xmlns="http://www.w3.org/2000/svg">
<g id="Fulfi-run-scared">
<path id="Vector" d="M21.2181 71.2596C32.7686 74.092 42.853 73.4487 43.7422 69.8226C44.6314 66.1966 35.9886 60.9609 24.4381 58.1285C12.8876 55.2961 2.80323 55.9395 1.91405 59.5656C1.02487 63.1916 9.6676 68.4272 21.2181 71.2596Z" fill="#2F2E41"/>
<path id="Vector_2" d="M119.56 79.9495C123.37 56.4712 107.426 34.3497 83.9476 30.5397C60.4693 26.7296 38.3478 42.674 34.5378 66.1523C30.7278 89.6306 46.6721 111.752 70.1504 115.562C93.6287 119.372 115.75 103.428 119.56 79.9495Z" fill="#2F2E41"/>
<path id="Vector_3" d="M54.9243 99.0962L64.9106 107.548L44.8208 127.322L39.7804 116.989L54.9243 99.0962Z" fill="#2F2E41"/>
<path id="Vector_4" d="M50.2257 134.146C52.2152 133.078 51.5188 127.911 48.6703 122.606C45.8217 117.301 41.8997 113.866 39.9103 114.934C37.9208 116.002 38.6172 121.169 41.4657 126.474C44.3142 131.78 48.2362 135.214 50.2257 134.146Z" fill="#2F2E41"/>
<path id="Vector_5" d="M64.3046 108.206L75.8232 102L86.8845 127.929L75.4231 128.843L64.3046 108.206Z" fill="#2F2E41"/>
<path id="Vector_6" d="M97.4852 127.035C97.1193 124.806 92.0056 123.791 86.0636 124.767C80.1215 125.743 75.6012 128.34 75.9672 130.568C76.3331 132.797 81.4467 133.812 87.3888 132.836C93.3308 131.86 97.8512 129.263 97.4852 127.035Z" fill="#2F2E41"/>
<path id="Vector_7" d="M95.0248 75.4384C103.154 75.4384 109.744 68.8483 109.744 60.7191C109.744 52.5899 103.154 45.9999 95.0248 45.9999C86.8956 45.9999 80.3055 52.5899 80.3055 60.7191C80.3055 68.8483 86.8956 75.4384 95.0248 75.4384Z" fill="white"/>
<path id="Vector_8" d="M101.212 65.8128C103.922 65.8128 106.118 63.6161 106.118 60.9064C106.118 58.1966 103.922 55.9999 101.212 55.9999C98.5022 55.9999 96.3055 58.1966 96.3055 60.9064C96.3055 63.6161 98.5022 65.8128 101.212 65.8128Z" fill="#3F3D56"/>
<path id="Vector_9" d="M30.3253 46.1702C23.1795 37.6081 31.5345 23.5144 48.9867 14.691C66.4389 5.86761 86.3794 5.65581 93.5252 14.2179C100.671 22.7801 89.8124 30.6527 72.3602 39.4761C54.908 48.2994 37.4711 54.7323 30.3253 46.1702Z" fill="#001C55"/>
<path id="Vector_10" d="M135.481 88.4714C135.543 84.7385 125.954 81.5528 114.062 81.3561C102.171 81.1594 92.4817 84.0261 92.4199 87.7591C92.3582 91.492 101.948 94.6777 113.839 94.8744C125.73 95.0711 135.42 92.2044 135.481 88.4714Z" fill="#2F2E41"/>
<path id="Vector_11" d="M92.6444 97.241C93.0999 93.797 85.1316 85.8234 75.2916 84.5218C65.4515 83.2203 54.9429 91.696 54.4873 95.1399C54.0318 98.5839 63.8019 95.6921 73.6419 96.9936C83.4819 98.2952 92.1888 100.685 92.6444 97.241Z" fill="white"/>
</g>
</svg>
