<svg width="127" height="146" viewBox="0 0 127 146" fill="none" xmlns="http://www.w3.org/2000/svg">
<g id="fulfi- amazed">
<path id="Vector" d="M61.3346 117.171C84.5374 117.171 103.347 98.3616 103.347 75.1588C103.347 51.956 84.5374 33.1465 61.3346 33.1465C38.1318 33.1465 19.3223 51.956 19.3223 75.1588C19.3223 98.3616 38.1318 117.171 61.3346 117.171Z" fill="#2F2E41"/>
<path id="Vector_2" d="M86.0464 104.197L73.4873 106.471L77.5607 128.973L90.1198 126.699L86.0464 104.197Z" fill="#2F2E41"/>
<path id="Vector_3" d="M60.9283 108.744L48.3691 111.018L52.4425 133.519L65.0017 131.246L60.9283 108.744Z" fill="#2F2E41"/>
<path id="Vector_4" d="M59.1097 138.251C63.5923 134.454 66.072 130.014 64.6484 128.333C63.2248 126.652 58.4369 128.367 53.9543 132.163C49.4718 135.96 46.992 140.4 48.4156 142.081C49.8392 143.762 54.6271 142.047 59.1097 138.251Z" fill="#2F2E41"/>
<path id="Vector_5" d="M83.7044 133.799C88.187 130.002 90.6668 125.562 89.2432 123.881C87.8196 122.2 83.0317 123.915 78.5491 127.711C74.0665 131.507 71.5867 135.948 73.0103 137.629C74.4339 139.31 79.2218 137.595 83.7044 133.799Z" fill="#2F2E41"/>
<path id="Vector_6" d="M58.3933 79.2412C66.3234 79.2412 72.752 72.8126 72.752 64.8826C72.752 56.9525 66.3234 50.5239 58.3933 50.5239C50.4633 50.5239 44.0347 56.9525 44.0347 64.8826C44.0347 72.8126 50.4633 79.2412 58.3933 79.2412Z" fill="white"/>
<path id="Vector_7" d="M52.4918 64.5217C55.1351 64.5217 57.278 62.3788 57.278 59.7354C57.278 57.0921 55.1351 54.9492 52.4918 54.9492C49.8484 54.9492 47.7056 57.0921 47.7056 59.7354C47.7056 62.3788 49.8484 64.5217 52.4918 64.5217Z" fill="#3F3D56"/>
<path id="Vector_8" d="M94.4762 29.4537C95.108 13.9002 81.703 0.726147 64.5354 0.0288171C47.3677 -0.668513 32.9385 11.3748 32.3067 26.9284C31.6748 42.482 43.6086 46.0159 60.7762 46.7133C77.9438 47.4107 93.8444 45.0073 94.4762 29.4537Z" fill="#2200FF"/>
<path id="Vector_9" d="M43.0169 72.1979C43.8306 68.648 35.3232 63.6689 24.0151 61.0769C12.707 58.4849 2.88032 59.2615 2.06661 62.8115C1.2529 66.3614 9.76025 71.3405 21.0684 73.9325C32.3765 76.5245 42.2032 75.7479 43.0169 72.1979Z" fill="#2F2E41"/>
<path id="Vector_10" d="M125.486 85.9128C126.299 82.3628 117.792 77.3838 106.484 74.7918C95.1758 72.1998 85.3491 72.9763 84.5354 76.5263C83.7217 80.0763 92.2291 85.0553 103.537 87.6473C114.845 90.2393 124.672 89.4628 125.486 85.9128Z" fill="#2F2E41"/>
<path id="Vector_11" d="M72.8731 91.7152C73.0992 92.9524 73.0793 94.2219 72.8146 95.4514C72.5499 96.6809 72.0454 97.8462 71.3302 98.8806C70.6149 99.9151 69.7028 100.798 68.646 101.48C67.5892 102.162 66.4084 102.629 65.1711 102.854C63.9337 103.079 62.6642 103.059 61.4349 102.793C60.2056 102.527 59.0407 102.022 58.0067 101.306C56.9728 100.59 56.0901 99.6773 55.4091 98.62C54.7281 97.5627 54.2621 96.3815 54.0377 95.144L54.0344 95.1255C53.0926 89.9234 57.1148 88.0825 62.317 87.1408C67.5192 86.1991 71.9314 86.5131 72.8731 91.7152Z" fill="white"/>
</g>
</svg>
