<svg width="88" height="138" viewBox="0 0 88 138" fill="none" xmlns="http://www.w3.org/2000/svg">
<g id="fulfi-quited">
<path id="Vector" d="M44.0318 119.118C67.8172 119.118 87.0991 99.8362 87.0991 76.0507C87.0991 52.2653 67.8172 32.9834 44.0318 32.9834C20.2464 32.9834 0.964478 52.2653 0.964478 76.0507C0.964478 99.8362 20.2464 119.118 44.0318 119.118Z" fill="#2F2E41"/>
<path id="Vector_2" d="M37.4901 109.851H24.4064V133.292H37.4901V109.851Z" fill="#2F2E41"/>
<path id="Vector_3" d="M63.6576 109.851H50.5739V133.292H63.6576V109.851Z" fill="#2F2E41"/>
<path id="Vector_4" d="M35.309 137.653C41.3307 137.653 46.2122 135.823 46.2122 133.565C46.2122 131.307 41.3307 129.476 35.309 129.476C29.2874 129.476 24.4059 131.307 24.4059 133.565C24.4059 135.823 29.2874 137.653 35.309 137.653Z" fill="#2F2E41"/>
<path id="Vector_5" d="M61.477 137.108C67.4986 137.108 72.3801 135.277 72.3801 133.019C72.3801 130.761 67.4986 128.931 61.477 128.931C55.4554 128.931 50.5739 130.761 50.5739 133.019C50.5739 135.277 55.4554 137.108 61.477 137.108Z" fill="#2F2E41"/>
<path id="Vector_6" d="M45.1222 79.8666C53.2514 79.8666 59.8414 73.2766 59.8414 65.1474C59.8414 57.0182 53.2514 50.4282 45.1222 50.4282C36.993 50.4282 30.403 57.0182 30.403 65.1474C30.403 73.2766 36.993 79.8666 45.1222 79.8666Z" fill="white"/>
<path id="Vector_7" d="M45.1219 70.054C47.8316 70.054 50.0283 67.8573 50.0283 65.1476C50.0283 62.4378 47.8316 60.2412 45.1219 60.2412C42.4121 60.2412 40.2155 62.4378 40.2155 65.1476C40.2155 67.8573 42.4121 70.054 45.1219 70.054Z" fill="#3F3D56"/>
<path id="Vector_8" d="M45.9064 102.813C48.6162 102.813 50.8128 100.616 50.8128 97.9064C50.8128 95.1966 48.6162 93 45.9064 93C43.1967 93 41 95.1966 41 97.9064C41 100.616 43.1967 102.813 45.9064 102.813Z" fill="white"/>
<path id="Vector_9" d="M2.25498 35.9994C-1.2225 20.4256 9.89364 4.689 27.0836 0.850627C44.2736 -2.98774 61.0279 6.52573 64.5053 22.0995C67.9828 37.6733 56.5904 43.4172 39.4005 47.2555C22.2105 51.0939 5.73251 51.5733 2.25498 35.9994Z" fill="#E6E6E6"/>
</g>
</svg>
