<svg width="1017" height="767" viewBox="0 0 1017 767" fill="none" xmlns="http://www.w3.org/2000/svg">
<path d="M478.782 176.574L482.781 176.553L482.221 67.0093C482.178 58.6834 483.776 50.4306 486.923 42.7221C490.07 35.0137 494.704 28.0006 500.561 22.0831C506.419 16.1657 513.384 11.4599 521.06 8.23441C528.736 5.0089 536.972 3.32685 545.298 3.2843L777.382 2.09848C785.708 2.05592 793.96 3.6537 801.669 6.80058C809.377 9.94746 816.39 14.5818 822.308 20.4391C828.225 26.2963 832.931 33.2617 836.157 40.9376C839.382 48.6135 841.064 56.8495 841.107 65.1754L844.177 666.142C844.263 682.957 837.666 699.117 825.837 711.068C814.007 723.019 797.915 729.781 781.1 729.867L549.017 731.053C532.202 731.139 516.041 724.542 504.091 712.712C492.14 700.883 485.378 684.791 485.292 667.976L483.179 254.528L479.18 254.549L478.782 176.574Z" fill="#E6E6E6"/>
<path d="M542.824 19.792L573.119 19.6372C571.743 23.0599 571.23 26.7685 571.625 30.4361C572.02 34.1037 573.311 37.6178 575.385 40.669C577.458 43.7201 580.25 46.2145 583.514 47.9326C586.778 49.6506 590.415 50.5395 594.104 50.5209L727.062 49.8416C730.75 49.8225 734.378 48.8965 737.625 47.1452C740.871 45.3939 743.637 42.871 745.679 39.7989C747.721 36.7267 748.976 33.1995 749.334 29.5281C749.692 25.8566 749.141 22.1535 747.73 18.745L776.025 18.6004C788.583 18.5363 800.651 23.4631 809.576 32.297C818.5 41.131 823.55 53.1484 823.615 65.7056L826.681 665.79C826.712 672.008 825.519 678.171 823.169 683.928C820.819 689.684 817.358 694.922 812.984 699.341C808.61 703.76 803.408 707.274 797.676 709.683C791.944 712.092 785.793 713.348 779.575 713.38L546.374 714.571C540.156 714.603 533.993 713.41 528.237 711.06C522.48 708.709 517.243 705.249 512.824 700.874C508.405 696.5 504.89 691.299 502.482 685.566C500.073 679.834 498.817 673.684 498.785 667.466L495.719 67.3811C495.687 61.1633 496.88 55.0002 499.23 49.2437C501.58 43.4871 505.041 38.2498 509.415 33.8307C513.79 29.4116 518.991 25.8974 524.724 23.4887C530.456 21.0799 536.606 19.8238 542.824 19.792Z" fill="#0E6BA8"/>
<path d="M707.909 754.327L710.909 754.312L702.86 353.348L699.86 353.363L707.909 754.327Z" fill="#3F3D56"/>
<path d="M625.91 754.746L628.91 754.731L632.861 353.706L629.861 353.721L625.91 754.746Z" fill="#3F3D56"/>
<path d="M631.901 361.711L701.9 361.353L701.916 364.353L631.917 364.711L631.901 361.711Z" fill="#3F3D56"/>
<path d="M632.167 413.71L702.166 413.352L702.181 416.352L632.182 416.71L632.167 413.71Z" fill="#3F3D56"/>
<path d="M630.433 465.72L703.432 465.347L703.447 468.347L630.448 468.72L630.433 465.72Z" fill="#3F3D56"/>
<path d="M629.698 517.724L703.697 517.346L703.713 520.346L629.714 520.724L629.698 517.724Z" fill="#3F3D56"/>
<path d="M628.964 569.728L704.963 569.34L704.978 572.34L628.979 572.728L628.964 569.728Z" fill="#3F3D56"/>
<path d="M629.23 621.728L706.229 621.334L706.244 624.334L629.245 624.728L629.23 621.728Z" fill="#3F3D56"/>
<path d="M628.495 673.732L707.494 673.329L707.51 676.329L628.511 676.732L628.495 673.732Z" fill="#3F3D56"/>
<path d="M627.761 725.737L709.76 725.318L709.775 728.318L627.777 728.737L627.761 725.737Z" fill="#3F3D56"/>
<path d="M671.191 548.878C647.989 548.996 629.083 530.283 628.965 507.081C628.846 483.878 647.559 464.973 670.762 464.854C693.964 464.736 712.87 483.449 712.988 506.651C713.107 529.854 694.393 548.759 671.191 548.878Z" fill="#2F2E41"/>
<path d="M646.413 536.03L658.984 538.24L655.025 560.762L642.455 558.553L646.413 536.03Z" fill="#2F2E41"/>
<path d="M671.554 540.449L684.125 542.658L680.167 565.181L667.596 562.971L671.554 540.449Z" fill="#2F2E41"/>
<path d="M673.524 569.946C669.022 566.172 666.519 561.745 667.934 560.057C669.349 558.368 674.146 560.059 678.648 563.832C683.15 567.605 685.652 572.033 684.237 573.721C682.822 575.409 678.026 573.719 673.524 569.946Z" fill="#2F2E41"/>
<path d="M648.906 565.619C644.405 561.846 641.902 557.419 643.317 555.73C644.732 554.042 649.529 555.732 654.031 559.506C658.533 563.279 661.035 567.706 659.62 569.395C658.205 571.083 653.408 569.393 648.906 565.619Z" fill="#2F2E41"/>
<path d="M673.938 510.933C666.009 510.974 659.547 504.578 659.507 496.648C659.466 488.718 665.862 482.257 673.792 482.216C681.722 482.176 688.183 488.572 688.224 496.502C688.264 504.431 681.868 510.893 673.938 510.933Z" fill="white"/>
<path d="M679.765 496.184C677.121 496.197 674.968 494.066 674.954 491.422C674.941 488.779 677.072 486.625 679.716 486.612C682.359 486.598 684.513 488.73 684.526 491.373C684.54 494.017 682.408 496.17 679.765 496.184Z" fill="#3F3D56"/>
<path d="M637.602 461.331C636.89 445.781 650.228 432.538 667.392 431.753C684.556 430.968 699.046 442.938 699.758 458.488C700.469 474.038 688.553 477.633 671.389 478.418C654.226 479.203 638.313 476.881 637.602 461.331Z" fill="#FFFF41"/>
<path d="M689.279 503.812C688.447 500.266 696.929 495.243 708.223 492.594C719.518 489.944 729.349 490.67 730.18 494.216C731.012 497.762 722.531 502.784 711.236 505.434C699.941 508.084 690.111 507.357 689.279 503.812Z" fill="#2F2E41"/>
<path d="M606.881 517.948C606.049 514.402 614.531 509.379 625.826 506.73C637.121 504.08 646.951 504.806 647.783 508.352C648.615 511.898 640.133 516.92 628.838 519.57C617.543 522.22 607.713 521.493 606.881 517.948Z" fill="#2F2E41"/>
<path d="M659.523 523.481C659.303 524.72 659.329 525.989 659.6 527.217C659.871 528.445 660.382 529.608 661.102 530.639C661.823 531.669 662.739 532.548 663.799 533.225C664.86 533.901 666.043 534.362 667.281 534.581C668.52 534.8 669.789 534.772 671.017 534.5C672.245 534.229 673.407 533.717 674.438 532.996C675.468 532.275 676.346 531.358 677.022 530.297C677.697 529.236 678.157 528.052 678.375 526.814L678.378 526.795C679.294 521.588 675.262 519.768 670.055 518.853C664.848 517.938 660.438 518.274 659.523 523.481Z" fill="white"/>
<path d="M524.846 258.633L793.888 281.36C795.209 281.47 796.52 281.052 797.533 280.197C798.546 279.341 799.178 278.119 799.291 276.799L804.929 210.061C805.039 208.74 804.621 207.429 803.766 206.416C802.91 205.403 801.688 204.771 800.368 204.658L531.326 181.93C530.004 181.82 528.694 182.239 527.681 183.094C526.668 183.949 526.035 185.171 525.922 186.492L520.285 253.229C520.175 254.55 520.593 255.861 521.448 256.874C522.303 257.887 523.525 258.519 524.846 258.633ZM800.199 206.651C800.992 206.718 801.725 207.098 802.238 207.706C802.751 208.313 803.002 209.1 802.936 209.892L797.298 276.63C797.231 277.423 796.851 278.156 796.243 278.669C795.636 279.182 794.849 279.433 794.057 279.367L525.014 256.64C524.222 256.572 523.489 256.192 522.976 255.585C522.463 254.977 522.211 254.19 522.278 253.398L527.915 186.66C527.983 185.867 528.363 185.134 528.97 184.621C529.578 184.108 530.365 183.857 531.157 183.923L800.199 206.651Z" fill="#E6E6E6"/>
<path d="M762.359 261.062C750.762 261.121 741.312 251.767 741.252 240.17C741.193 228.572 750.547 219.122 762.145 219.063C773.743 219.003 783.193 228.357 783.252 239.955C783.311 251.553 773.957 261.003 762.359 261.062Z" fill="#3F3D56"/>
<path d="M713.335 242.955C713.794 242.992 714.242 243.119 714.652 243.33C715.062 243.54 715.426 243.829 715.724 244.181C716.022 244.532 716.248 244.939 716.388 245.378C716.528 245.817 716.58 246.279 716.542 246.738C716.503 247.197 716.374 247.644 716.162 248.054C715.95 248.463 715.659 248.826 715.307 249.123C714.954 249.419 714.546 249.643 714.107 249.782C713.667 249.92 713.205 249.971 712.746 249.93L548.331 236.041C547.407 235.962 546.552 235.519 545.954 234.81C545.356 234.101 545.064 233.184 545.142 232.259C545.22 231.335 545.662 230.479 546.37 229.881C547.079 229.282 547.996 228.989 548.921 229.066L713.335 242.955Z" fill="#E6E6E6"/>
<path d="M623.079 273.797C618.776 262.71 618.11 252.627 621.59 251.277C625.071 249.926 631.381 257.819 635.683 268.906C639.986 279.993 640.653 290.076 637.172 291.426C633.691 292.777 627.382 284.884 623.079 273.797Z" fill="#2F2E41"/>
<path d="M626.879 310.786C622.949 287.327 638.78 265.124 662.238 261.194C685.697 257.264 707.9 273.096 711.83 296.554C715.759 320.013 699.928 342.215 676.47 346.145C653.011 350.075 630.809 334.244 626.879 310.786Z" fill="#2F2E41"/>
<path d="M676.069 337.436L689.152 337.369L689.272 360.81L676.188 360.877L676.069 337.436Z" fill="#2F2E41"/>
<path d="M649.901 337.569L662.985 337.502L663.105 360.944L650.021 361.011L649.901 337.569Z" fill="#2F2E41"/>
<path d="M678.391 365.227C672.37 365.258 667.479 363.452 667.467 361.194C667.456 358.936 672.328 357.081 678.35 357.05C684.371 357.019 689.262 358.825 689.273 361.083C689.285 363.341 684.413 365.196 678.391 365.227Z" fill="#2F2E41"/>
<path d="M652.221 364.815C646.2 364.846 641.309 363.041 641.297 360.783C641.286 358.524 646.158 356.669 652.18 356.638C658.201 356.607 663.092 358.413 663.103 360.671C663.115 362.929 658.243 364.785 652.221 364.815Z" fill="#2F2E41"/>
<path d="M710.925 263.406C714.323 247.814 703.127 232.135 685.918 228.384C668.708 224.634 652.003 234.232 648.605 249.824C645.207 265.415 656.629 271.101 673.838 274.851C691.047 278.602 707.528 278.997 710.925 263.406Z" fill="#FFA52C"/>
<path d="M698.35 292.766C696.733 289.401 704.112 282.497 714.831 277.346C725.55 272.195 735.551 270.747 737.168 274.112C738.785 277.477 731.406 284.381 720.687 289.532C709.968 294.683 699.967 296.131 698.35 292.766Z" fill="#2F2E41"/>
<path d="M931.06 739.013C907.274 739.135 887.894 719.952 887.773 696.167C887.651 672.381 906.834 653.001 930.62 652.88C954.405 652.758 973.785 671.941 973.906 695.726C974.028 719.512 954.845 738.892 931.06 739.013Z" fill="#2F2E41"/>
<path d="M937.554 729.712L950.637 729.646L950.757 753.087L937.674 753.154L937.554 729.712Z" fill="#2F2E41"/>
<path d="M911.387 729.846L924.47 729.779L924.59 753.221L911.507 753.288L911.387 729.846Z" fill="#2F2E41"/>
<path d="M939.877 757.504C933.855 757.534 928.965 755.729 928.953 753.471C928.942 751.213 933.814 749.357 939.835 749.326C945.857 749.296 950.748 751.101 950.759 753.359C950.771 755.617 945.899 757.473 939.877 757.504Z" fill="#2F2E41"/>
<path d="M913.707 757.092C907.685 757.123 902.794 755.317 902.783 753.059C902.771 750.801 907.643 748.946 913.665 748.915C919.686 748.884 924.577 750.69 924.589 752.948C924.6 755.206 919.728 757.061 913.707 757.092Z" fill="#2F2E41"/>
<path d="M929.769 699.768C921.64 699.809 915.016 693.253 914.974 685.124C914.933 676.995 921.489 670.371 929.618 670.33C937.747 670.288 944.371 676.845 944.413 684.974C944.454 693.103 937.898 699.726 929.769 699.768Z" fill="white"/>
<path d="M929.719 689.955C927.009 689.969 924.801 687.784 924.787 685.074C924.774 682.364 926.959 680.157 929.669 680.143C932.378 680.129 934.586 682.314 934.6 685.024C934.614 687.734 932.429 689.942 929.719 689.955Z" fill="#3F3D56"/>
<path d="M972.411 655.682C975.809 640.091 964.613 624.411 947.403 620.661C930.194 616.91 913.488 626.509 910.091 642.1C906.693 657.692 918.114 663.377 935.324 667.128C952.533 670.878 969.013 671.274 972.411 655.682Z" fill="#86007D"/>
<path d="M898.652 542.25C894.349 531.163 893.682 521.08 897.163 519.729C900.643 518.379 906.953 526.272 911.256 537.359C915.559 548.446 916.225 558.529 912.745 559.879C909.264 561.23 902.954 553.337 898.652 542.25Z" fill="#2F2E41"/>
<path d="M902.451 579.238C898.521 555.78 914.352 533.577 937.811 529.647C961.269 525.717 983.472 541.548 987.402 565.007C991.332 588.466 975.501 610.668 952.042 614.598C928.584 618.528 906.381 602.697 902.451 579.238Z" fill="#2F2E41"/>
<path d="M951.641 605.888L964.724 605.822L964.844 629.263L951.76 629.33L951.641 605.888Z" fill="#2F2E41"/>
<path d="M925.473 606.022L938.557 605.955L938.677 629.397L925.593 629.464L925.473 606.022Z" fill="#2F2E41"/>
<path d="M953.963 633.68C947.942 633.711 943.051 631.905 943.039 629.647C943.028 627.389 947.9 625.533 953.921 625.502C959.943 625.472 964.834 627.277 964.845 629.535C964.857 631.793 959.985 633.649 953.963 633.68Z" fill="#2F2E41"/>
<path d="M927.793 633.269C921.772 633.299 916.881 631.494 916.869 629.236C916.858 626.978 921.73 625.122 927.752 625.091C933.773 625.061 938.664 626.866 938.675 629.124C938.687 631.382 933.815 633.238 927.793 633.269Z" fill="#2F2E41"/>
<path d="M943.855 575.944C935.726 575.985 929.103 569.429 929.061 561.3C929.02 553.171 935.576 546.547 943.705 546.506C951.834 546.464 958.458 553.021 958.499 561.15C958.541 569.279 951.985 575.902 943.855 575.944Z" fill="white"/>
<path d="M943.806 566.131C941.096 566.145 938.888 563.96 938.874 561.25C938.86 558.54 941.046 556.332 943.756 556.319C946.465 556.305 948.673 558.49 948.687 561.2C948.701 563.909 946.515 566.117 943.806 566.131Z" fill="#3F3D56"/>
<path d="M986.498 531.858C989.896 516.267 978.699 500.587 961.49 496.837C944.281 493.086 927.575 502.685 924.177 518.276C920.78 533.868 932.201 539.553 949.411 543.304C966.62 547.054 983.1 547.45 986.498 531.858Z" fill="#0000F9"/>
<path d="M973.923 561.219C972.306 557.854 979.684 550.95 990.404 545.799C1001.12 540.648 1011.12 539.2 1012.74 542.565C1014.36 545.93 1006.98 552.834 996.26 557.985C985.541 563.136 975.54 564.584 973.923 561.219Z" fill="#2F2E41"/>
<path d="M966.16 587.551C966.182 591.766 955.371 600.145 943.328 600.207C931.285 600.268 919.933 588.459 919.911 584.244C919.889 580.029 931.207 585.004 943.25 584.942C955.293 584.881 966.139 583.336 966.16 587.551Z" fill="white"/>
<path d="M759.765 574.08C755.462 562.992 754.795 552.91 758.276 551.559C761.756 550.208 768.066 558.101 772.369 569.188C776.672 580.275 777.338 590.358 773.858 591.709C770.377 593.059 764.067 585.167 759.765 574.08Z" fill="#2F2E41"/>
<path d="M754.61 620.113C750.68 596.655 766.511 574.452 789.97 570.522C813.428 566.592 835.631 582.423 839.561 605.882C843.491 629.341 827.66 651.543 804.201 655.473C780.743 659.403 758.54 643.572 754.61 620.113Z" fill="#2F2E41"/>
<path d="M816.883 646.697L803.8 646.764L806.504 674.822L817.003 670.138L816.883 646.697Z" fill="#2F2E41"/>
<path d="M806.009 683.073C804.014 682.015 804.684 676.845 807.505 671.525C810.327 666.205 814.231 662.75 816.226 663.808C818.221 664.866 817.551 670.037 814.729 675.356C811.908 680.676 808.004 684.131 806.009 683.073Z" fill="#2F2E41"/>
<path d="M788.361 646.915L775.277 646.982L777.981 675.041L788.481 670.357L788.361 646.915Z" fill="#2F2E41"/>
<path d="M777.485 683.292C775.491 682.234 776.161 677.063 778.982 671.743C781.803 666.424 785.708 662.969 787.703 664.027C789.698 665.085 789.028 670.255 786.206 675.575C783.385 680.895 779.48 684.35 777.485 683.292Z" fill="#2F2E41"/>
<path d="M796.015 616.819C787.886 616.861 781.262 610.305 781.221 602.176C781.179 594.047 787.735 587.423 795.865 587.381C803.994 587.34 810.617 593.896 810.659 602.025C810.7 610.154 804.144 616.778 796.015 616.819Z" fill="white"/>
<path d="M795.965 607.007C793.255 607.02 791.047 604.835 791.033 602.125C791.019 599.416 793.205 597.208 795.915 597.194C798.624 597.18 800.832 599.365 800.846 602.075C800.86 604.785 798.674 606.993 795.965 607.007Z" fill="#3F3D56"/>
<path d="M838.657 572.733C842.055 557.142 830.859 541.462 813.649 537.712C796.44 533.961 779.734 543.56 776.337 559.151C772.939 574.743 784.36 580.428 801.57 584.179C818.779 587.929 835.259 588.325 838.657 572.733Z" fill="#008018"/>
<path d="M829.735 600.168C826.721 597.966 829.965 588.396 836.982 578.794C843.999 569.191 852.131 563.193 855.145 565.396C858.159 567.599 854.915 577.168 847.898 586.771C840.881 596.373 832.749 602.371 829.735 600.168Z" fill="#2F2E41"/>
<path d="M776.187 635.311C776.169 631.837 785.079 624.931 795.005 624.881C804.93 624.83 814.287 634.563 814.304 638.037C814.322 641.511 804.994 637.41 795.069 637.461C785.143 637.512 776.205 638.785 776.187 635.311Z" fill="white"/>
<path d="M821.003 576.818C833.48 576.76 845.823 574.243 857.327 569.412C868.831 564.581 879.27 557.53 888.047 548.662C896.824 539.795 903.768 529.284 908.482 517.732C913.195 506.179 915.586 493.811 915.517 481.334C915.516 481.136 915.514 480.926 915.502 480.728C914.945 428.704 872.117 386.555 820.033 386.821C798.602 386.934 777.839 394.288 761.115 407.689C744.391 421.091 732.689 439.753 727.91 460.644C723.13 481.535 725.553 503.428 734.786 522.769C744.019 542.109 759.519 557.76 778.768 567.179C791.906 573.633 806.367 576.933 821.003 576.818ZM820.043 388.821C844.596 388.75 868.186 398.371 885.686 415.593C903.186 432.816 913.183 456.249 913.504 480.8C913.515 481.013 913.516 481.183 913.517 481.345C913.644 504.929 904.805 527.681 888.791 544.994C872.776 562.308 850.782 572.891 827.259 574.6C803.737 576.31 780.443 569.019 762.094 554.203C743.744 539.387 731.709 518.152 728.424 494.797C726.569 481.657 727.548 468.272 731.296 455.541C735.044 442.811 741.473 431.03 750.153 420.991C758.832 410.952 769.559 402.887 781.614 397.338C793.669 391.789 806.772 388.885 820.043 388.821Z" fill="#F72585"/>
<path d="M857.678 491.975L784.029 506.57C783.685 506.638 783.328 506.614 782.996 506.501C782.664 506.388 782.367 506.19 782.135 505.925C781.904 505.661 781.747 505.341 781.678 504.997C781.61 504.652 781.634 504.296 781.747 503.964L805.932 432.884C806.045 432.552 806.244 432.255 806.508 432.024C806.772 431.792 807.093 431.635 807.437 431.566C807.781 431.498 808.138 431.522 808.47 431.635C808.802 431.748 809.099 431.947 809.33 432.211L858.794 488.696C859.025 488.96 859.183 489.28 859.251 489.625C859.32 489.969 859.296 490.325 859.183 490.658C859.07 490.99 858.871 491.287 858.607 491.518C858.343 491.749 858.023 491.907 857.678 491.975L784.029 506.57C783.685 506.638 783.328 506.614 782.996 506.501C782.664 506.388 782.367 506.19 782.135 505.925C781.904 505.661 781.747 505.341 781.678 504.997C781.61 504.652 781.634 504.296 781.747 503.964L805.932 432.884C806.045 432.552 806.244 432.255 806.508 432.024C806.772 431.792 807.093 431.635 807.437 431.566C807.781 431.498 808.138 431.522 808.47 431.635C808.802 431.748 809.099 431.947 809.33 432.211L858.794 488.696C859.025 488.96 859.183 489.28 859.251 489.625C859.32 489.969 859.296 490.325 859.183 490.658C859.07 490.99 858.871 491.287 858.607 491.518C858.343 491.749 858.023 491.907 857.678 491.975Z" fill="#F72585"/>
<path d="M786.02 756.271C756.749 756.42 733.016 755.646 733.01 754.542C733.005 753.437 756.729 752.42 785.999 752.271C815.27 752.121 839.003 752.895 839.009 754C839.014 755.105 815.29 756.121 786.02 756.271Z" fill="#E6E6E6"/>
<path d="M941.02 761.271C911.749 761.42 888.016 760.646 888.01 759.542C888.005 758.437 911.729 757.42 940.999 757.271C970.27 757.121 994.003 757.895 994.009 759C994.014 760.105 970.29 761.121 941.02 761.271Z" fill="#E6E6E6"/>
<path d="M80.0197 738.271C50.749 738.42 27.0158 737.646 27.0101 736.542C27.0045 735.437 50.7285 734.42 79.9992 734.271C109.27 734.121 133.003 734.895 133.009 736C133.014 737.105 109.29 738.121 80.0197 738.271Z" fill="#E6E6E6"/>
<path d="M243.807 735.698C214.536 735.848 190.803 735.074 190.798 733.969C190.792 732.865 214.516 731.848 243.787 731.699C273.057 731.549 296.791 732.323 296.796 733.428C296.802 734.532 273.078 735.549 243.807 735.698Z" fill="#E6E6E6"/>
<path d="M244.042 732.013L481.05 602.677C482.213 602.041 483.076 600.969 483.449 599.697C483.823 598.426 483.677 597.058 483.044 595.893L450.961 537.102C450.325 535.939 449.253 535.076 447.981 534.702C446.709 534.328 445.341 534.474 444.177 535.108L207.169 664.443C206.006 665.08 205.143 666.151 204.77 667.423C204.396 668.695 204.542 670.063 205.175 671.228L237.258 730.019C237.894 731.182 238.966 732.045 240.238 732.419C241.51 732.793 242.878 732.647 244.042 732.013ZM445.135 536.863C445.833 536.483 446.654 536.396 447.417 536.62C448.181 536.844 448.824 537.362 449.205 538.06L481.288 596.851C481.668 597.55 481.756 598.371 481.532 599.134C481.307 599.897 480.789 600.54 480.092 600.922L243.084 730.257C242.386 730.638 241.565 730.725 240.802 730.501C240.038 730.277 239.395 729.759 239.014 729.061L206.931 670.27C206.551 669.571 206.463 668.75 206.688 667.987C206.912 667.224 207.43 666.581 208.127 666.199L445.135 536.863Z" fill="#E6E6E6"/>
<path d="M431.997 606.658C420.4 606.717 410.95 597.363 410.89 585.765C410.831 574.168 420.185 564.718 431.783 564.658C443.381 564.599 452.831 573.953 452.89 585.551C452.949 597.149 443.595 606.599 431.997 606.658Z" fill="#2200FF"/>
<path d="M382.61 596.601C383.014 596.381 383.457 596.242 383.914 596.193C384.371 596.144 384.833 596.185 385.274 596.315C385.716 596.444 386.127 596.659 386.485 596.948C386.843 597.236 387.14 597.593 387.36 597.996C387.581 598.4 387.719 598.843 387.768 599.3C387.817 599.757 387.776 600.219 387.646 600.661C387.516 601.102 387.301 601.513 387.012 601.871C386.723 602.228 386.367 602.526 385.963 602.746L241.126 681.784C240.722 682.005 240.279 682.143 239.822 682.193C239.365 682.242 238.903 682.2 238.462 682.071C238.021 681.941 237.609 681.726 237.251 681.437C236.893 681.149 236.596 680.793 236.376 680.389C236.155 679.986 236.017 679.543 235.968 679.085C235.919 678.628 235.96 678.166 236.09 677.725C236.22 677.284 236.435 676.873 236.724 676.515C237.013 676.157 237.369 675.86 237.773 675.64L382.61 596.601Z" fill="#E6E6E6"/>
<path d="M392.67 615.035C393.485 614.59 394.443 614.488 395.333 614.749C396.224 615.011 396.974 615.616 397.419 616.431C397.863 617.246 397.966 618.204 397.704 619.094C397.443 619.985 396.838 620.735 396.023 621.18L251.185 700.218C250.782 700.438 250.339 700.577 249.882 700.626C249.425 700.675 248.963 700.633 248.522 700.504C248.081 700.374 247.67 700.159 247.312 699.87C246.954 699.582 246.657 699.226 246.436 698.822C246.216 698.419 246.078 697.976 246.029 697.519C245.98 697.062 246.021 696.6 246.151 696.159C246.28 695.718 246.496 695.307 246.784 694.949C247.073 694.591 247.429 694.294 247.832 694.073L392.67 615.035Z" fill="#E6E6E6"/>
<path d="M131.205 665.261C142.716 661.985 151.071 655.898 149.866 651.665C148.661 647.432 138.353 646.655 126.842 649.931C115.331 653.207 106.977 659.294 108.181 663.528C109.386 667.761 119.694 668.537 131.205 665.261Z" fill="#2F2E41"/>
<path d="M121.771 681.835C125.581 658.357 109.637 636.235 86.1587 632.425C62.6804 628.615 40.5589 644.56 36.7488 668.038C32.9388 691.516 48.8831 713.638 72.3614 717.448C95.8397 721.258 117.961 705.313 121.771 681.835Z" fill="#2F2E41"/>
<path d="M59.6349 708.737H72.7179L70.1579 736.809L59.6349 732.178V708.737Z" fill="#2F2E41"/>
<path d="M81.7009 735.439C82.0653 733.211 77.5432 730.617 71.6005 729.645C65.6578 728.673 60.5448 729.692 60.1804 731.92C59.816 734.149 64.3381 736.743 70.2809 737.715C76.2236 738.687 81.3365 737.668 81.7009 735.439Z" fill="#2F2E41"/>
<path d="M109.701 735.439C110.065 733.211 105.543 730.617 99.6005 729.645C93.6578 728.673 88.5448 729.692 88.1804 731.92C87.816 734.149 92.3381 736.743 98.2809 737.715C104.224 738.687 109.337 737.668 109.701 735.439Z" fill="#2F2E41"/>
<path d="M88.1578 708.809H101.242L98.6818 736.882L88.1578 732.251V708.809Z" fill="#2F2E41"/>
<path d="M80.5696 678.324C88.6988 678.324 95.2888 671.734 95.2888 663.605C95.2888 655.476 88.6988 648.886 80.5696 648.886C72.4404 648.886 65.8503 655.476 65.8503 663.605C65.8503 671.734 72.4404 678.324 80.5696 678.324Z" fill="white"/>
<path d="M83.7568 660.699C86.4665 660.699 88.6632 658.502 88.6632 655.792C88.6632 653.082 86.4665 650.886 83.7568 650.886C81.047 650.886 78.8503 653.082 78.8503 655.792C78.8503 658.502 81.047 660.699 83.7568 660.699Z" fill="#3F3D56"/>
<path d="M21.2237 660.009C10.934 647.813 13.5059 628.718 26.9682 617.361C40.4305 606.003 59.6853 606.683 69.975 618.88C80.2647 631.077 72.8236 641.44 59.3613 652.798C45.899 664.156 31.5134 672.206 21.2237 660.009Z" fill="#FF0018"/>
<path d="M43.327 682.208C39.5978 682.03 36.115 691.516 35.548 703.395C34.9811 715.274 37.5446 725.048 41.2739 725.226C45.0031 725.404 48.4859 715.919 49.0528 704.039C49.6198 692.16 47.0562 682.386 43.327 682.208Z" fill="#2F2E41"/>
<path d="M100.273 697.143C100.273 693.669 91.3276 686.809 81.4018 686.809C71.476 686.809 62.1696 696.589 62.1696 700.063C62.1696 703.537 71.4761 699.389 81.4018 699.389C91.3276 699.389 100.273 700.617 100.273 697.143Z" fill="white"/>
</svg>
