<svg width="114" height="149" viewBox="0 0 114 149" fill="none" xmlns="http://www.w3.org/2000/svg">
<g id="Fulfi-scared">
<path id="Vector" d="M101.016 36.9426C105.262 25.8337 105.877 15.7475 102.39 14.4146C98.9021 13.0816 92.6329 21.0066 88.3869 32.1155C84.1408 43.2244 83.5258 53.3106 87.0133 54.6435C90.5007 55.9765 96.7699 48.0515 101.016 36.9426Z" fill="#2F2E41"/>
<path id="Vector_2" d="M106.405 82.9496C110.215 59.4713 94.2712 37.3497 70.7928 33.5397C47.3145 29.7297 25.193 45.674 21.383 69.1523C17.573 92.6306 33.5173 114.752 56.9956 118.562C80.4739 122.372 102.595 106.428 106.405 82.9496Z" fill="#2F2E41"/>
<path id="Vector_3" d="M44.269 109.851H57.352L54.792 137.923L44.269 133.292V109.851Z" fill="#2F2E41"/>
<path id="Vector_4" d="M55.3293 146.171C57.3188 145.103 56.6224 139.936 53.7739 134.631C50.9254 129.326 47.0034 125.891 45.0139 126.959C43.0244 128.027 43.7208 133.194 46.5693 138.499C49.4178 143.804 53.3398 147.239 55.3293 146.171Z" fill="#2F2E41"/>
<path id="Vector_5" d="M72.792 109.923H85.876L83.316 137.996L72.792 133.365V109.923Z" fill="#2F2E41"/>
<path id="Vector_6" d="M83.8533 146.244C85.8428 145.176 85.1463 140.009 82.2978 134.704C79.4493 129.398 75.5273 125.963 73.5378 127.032C71.5483 128.1 72.2447 133.267 75.0933 138.572C77.9418 143.877 81.8638 147.312 83.8533 146.244Z" fill="#2F2E41"/>
<path id="Vector_7" d="M64.9844 79.8672C73.1136 79.8672 79.7036 73.2771 79.7036 65.1479C79.7036 57.0187 73.1136 50.4287 64.9844 50.4287C56.8552 50.4287 50.2651 57.0187 50.2651 65.1479C50.2651 73.2771 56.8552 79.8672 64.9844 79.8672Z" fill="white"/>
<path id="Vector_8" d="M64.9845 70.0541C67.6943 70.0541 69.891 67.8574 69.891 65.1476C69.891 62.4379 67.6943 60.2412 64.9845 60.2412C62.2748 60.2412 60.0781 62.4379 60.0781 65.1476C60.0781 67.8574 62.2748 70.0541 64.9845 70.0541Z" fill="#3F3D56"/>
<path id="Vector_9" d="M22.1177 35.9994C18.6402 20.4256 29.7563 4.68901 46.9463 0.850634C64.1362 -2.98775 80.8905 6.52567 84.368 22.0995C87.8454 37.6733 76.453 43.4171 59.2631 47.2555C42.0732 51.0938 25.5951 51.5733 22.1177 35.9994Z" fill="#F2F2F2"/>
<path id="Vector_10" d="M31.1797 63.3887C34.1828 61.1705 30.8894 51.6174 23.8237 42.0512C16.758 32.485 8.59553 26.5282 5.59241 28.7464C2.58929 30.9645 5.8827 40.5176 12.9484 50.0838C20.0142 59.6501 28.1766 65.6068 31.1797 63.3887Z" fill="#2F2E41"/>
<path id="Vector_11" d="M84.9068 98.2573C84.9068 94.7833 75.9618 87.9233 66.036 87.9233C56.1102 87.9233 46.8037 97.7038 46.8037 101.178C46.8037 104.652 56.1103 100.504 66.036 100.504C75.9617 100.504 84.9068 101.731 84.9068 98.2573Z" fill="white"/>
</g>
</svg>
