<svg width="108" height="143" viewBox="0 0 108 143" fill="none" xmlns="http://www.w3.org/2000/svg">
<g id="Fulfi-look-down">
<path id="Vector" d="M89.0891 102.196C91.8997 111.806 97.0831 118.747 100.666 117.699C104.25 116.651 104.876 108.011 102.066 98.4008C99.255 88.7906 94.0717 81.8496 90.4883 82.8976C86.9049 83.9456 86.2785 92.5858 89.0891 102.196Z" fill="#2F2E41"/>
<path id="Vector_2" d="M95.8721 82.9496C99.6821 59.4713 83.7378 37.3497 60.2595 33.5397C36.7812 29.7297 14.6596 45.674 10.8496 69.1523C7.03961 92.6306 22.9839 114.752 46.4622 118.562C69.9405 122.372 92.0621 106.428 95.8721 82.9496Z" fill="#2F2E41"/>
<path id="Vector_3" d="M33.7357 109.851H46.8187L44.2587 137.923L33.7357 133.292V109.851Z" fill="#2F2E41"/>
<path id="Vector_4" d="M24.4812 138.602C24.9581 140.809 30.1161 141.567 36.0019 140.296C41.8878 139.024 46.2725 136.204 45.7956 133.996C45.3187 131.789 40.1607 131.031 34.2749 132.303C28.3891 133.574 24.0043 136.395 24.4812 138.602Z" fill="#2F2E41"/>
<path id="Vector_5" d="M62.2585 109.923H75.3425L72.7825 137.996L62.2585 133.365V109.923Z" fill="#2F2E41"/>
<path id="Vector_6" d="M82.7288 138.711C83.3261 136.533 79.1026 133.477 73.2955 131.884C67.4883 130.291 62.2965 130.765 61.6992 132.943C61.1019 135.121 65.3253 138.177 71.1325 139.77C76.9396 141.363 82.1315 140.889 82.7288 138.711Z" fill="#2F2E41"/>
<path id="Vector_7" d="M54.451 79.8672C62.5802 79.8672 69.1703 73.2771 69.1703 65.1479C69.1703 57.0187 62.5802 50.4287 54.451 50.4287C46.3218 50.4287 39.7318 57.0187 39.7318 65.1479C39.7318 73.2771 46.3218 79.8672 54.451 79.8672Z" fill="white"/>
<path id="Vector_8" d="M54.9064 77.8129C57.6162 77.8129 59.8128 75.6162 59.8128 72.9064C59.8128 70.1967 57.6162 68 54.9064 68C52.1967 68 50 70.1967 50 72.9064C50 75.6162 52.1967 77.8129 54.9064 77.8129Z" fill="#3F3D56"/>
<path id="Vector_9" d="M11.5843 35.9994C8.10685 20.4256 19.223 4.68901 36.4129 0.850634C53.6029 -2.98775 70.3572 6.52567 73.8346 22.0995C77.3121 37.6733 65.9197 43.4171 48.7298 47.2555C31.5398 51.0938 15.0618 51.5733 11.5843 35.9994Z" fill="#4361EE"/>
<path id="Vector_10" d="M19.6204 74.9423C16.1598 73.8696 10.3649 82.6445 6.67719 94.5416C2.98946 106.439 2.80535 116.953 6.26597 118.025C9.72659 119.098 15.5215 110.323 19.2092 98.4261C22.8969 86.5291 23.081 76.015 19.6204 74.9423Z" fill="#2F2E41"/>
<path id="Vector_11" d="M36.4076 91.4628C36.2672 94.934 44.9276 102.15 54.8453 102.551C64.763 102.952 74.4572 93.5562 74.5976 90.0851C74.7381 86.6139 65.2715 90.3823 55.3538 89.9811C45.4362 89.5798 36.5481 87.9916 36.4076 91.4628Z" fill="white"/>
</g>
</svg>
