<svg width="112" height="141" viewBox="0 0 112 141" fill="none" xmlns="http://www.w3.org/2000/svg">
<g id="fulfi-hollo">
<path id="Vector" d="M103.95 46.9416C108.196 35.8327 108.811 25.7465 105.324 24.4136C101.836 23.0806 95.5671 31.0056 91.3211 42.1145C87.075 53.2234 86.46 63.3096 89.9475 64.6425C93.4349 65.9755 99.7041 58.0505 103.95 46.9416Z" fill="#2F2E41"/>
<path id="Vector_2" d="M96.8834 82.9496C100.693 59.4713 84.7491 37.3497 61.2708 33.5397C37.7924 29.7297 15.6709 45.674 11.8609 69.1523C8.0509 92.6306 23.9952 114.752 47.4735 118.562C70.9518 122.372 93.0734 106.428 96.8834 82.9496Z" fill="#2F2E41"/>
<path id="Vector_3" d="M34.7469 109.851H47.8299L45.2699 137.923L34.7469 133.292V109.851Z" fill="#2F2E41"/>
<path id="Vector_4" d="M45.6469 136.402C45.7837 134.148 41.022 132.025 35.0115 131.661C29.0009 131.296 24.0175 132.827 23.8806 135.081C23.7438 137.335 28.5055 139.458 34.516 139.823C40.5266 140.188 45.5101 138.656 45.6469 136.402Z" fill="#2F2E41"/>
<path id="Vector_5" d="M63.2699 109.923H76.3539L73.7939 137.996L63.2699 133.365V109.923Z" fill="#2F2E41"/>
<path id="Vector_6" d="M84.7608 135.515C85.0147 133.271 80.37 130.903 74.3865 130.226C68.4031 129.549 63.3467 130.819 63.0928 133.063C62.8388 135.307 67.4835 137.674 73.4669 138.352C79.4503 139.029 84.5068 137.759 84.7608 135.515Z" fill="#2F2E41"/>
<path id="Vector_7" d="M55.4623 79.8672C63.5915 79.8672 70.1815 73.2771 70.1815 65.1479C70.1815 57.0187 63.5915 50.4287 55.4623 50.4287C47.3331 50.4287 40.743 57.0187 40.743 65.1479C40.743 73.2771 47.3331 79.8672 55.4623 79.8672Z" fill="white"/>
<path id="Vector_8" d="M55.4624 70.0541C58.1722 70.0541 60.3689 67.8574 60.3689 65.1476C60.3689 62.4379 58.1722 60.2412 55.4624 60.2412C52.7527 60.2412 50.556 62.4379 50.556 65.1476C50.556 67.8574 52.7527 70.0541 55.4624 70.0541Z" fill="#3F3D56"/>
<path id="Vector_9" d="M12.5956 35.9994C9.11808 20.4256 20.2342 4.68901 37.4242 0.850634C54.6141 -2.98775 71.3684 6.52567 74.8459 22.0995C78.3233 37.6733 66.9309 43.4171 49.741 47.2555C32.5511 51.0938 16.073 51.5733 12.5956 35.9994Z" fill="#4CC9F0"/>
<path id="Vector_10" d="M7.18202 122.399C10.799 123.324 16.1211 114.735 19.0693 103.213C22.0175 91.6917 21.4754 81.6014 17.8585 80.6758C14.2416 79.7503 8.91943 88.34 5.97121 99.8615C3.02298 111.383 3.56508 121.473 7.18202 122.399Z" fill="#2F2E41"/>
<path id="Vector_11" d="M37.1423 93.3067C37.3377 96.7752 46.6543 103.121 56.5644 102.563C66.4745 102.005 75.2162 91.7165 75.0208 88.248C74.8255 84.7796 65.7669 89.4444 55.8569 90.0026C45.9469 90.5608 36.9469 89.8382 37.1423 93.3067Z" fill="white"/>
</g>
</svg>
