<svg width="125" height="141" viewBox="0 0 125 141" fill="none" xmlns="http://www.w3.org/2000/svg">
<g id="Fulfi-up">
<path id="Vector" d="M107.255 99.7621C109.731 111.394 114.698 120.194 118.35 119.417C122.002 118.639 122.955 108.58 120.479 96.9474C118.003 85.3153 113.036 76.5157 109.384 77.2929C105.732 78.0702 104.779 88.13 107.255 99.7621Z" fill="#2F2E41"/>
<path id="Vector_2" d="M118.023 82.8351C121.833 59.3568 105.888 37.2353 82.41 33.4253C58.9317 29.6153 36.8102 45.5596 33.0002 69.0379C29.1902 92.5162 45.1345 114.638 68.6128 118.448C92.0911 122.258 114.213 106.313 118.023 82.8351Z" fill="#2F2E41"/>
<path id="Vector_3" d="M55.8862 109.737H68.9692L66.4092 137.809L55.8862 133.178V109.737Z" fill="#2F2E41"/>
<path id="Vector_4" d="M77.9522 136.44C78.3167 134.211 73.7945 131.617 67.8518 130.645C61.9091 129.673 56.7962 130.692 56.4318 132.921C56.0674 135.149 60.5895 137.743 66.5322 138.715C72.4749 139.687 77.5878 138.668 77.9522 136.44Z" fill="#2F2E41"/>
<path id="Vector_5" d="M105.952 136.44C106.317 134.211 101.795 131.617 95.8518 130.645C89.9091 129.673 84.7962 130.692 84.4318 132.921C84.0674 135.149 88.5895 137.743 94.5322 138.715C100.475 139.687 105.588 138.668 105.952 136.44Z" fill="#2F2E41"/>
<path id="Vector_6" d="M84.4092 109.809H97.4932L94.9332 137.882L84.4092 133.251V109.809Z" fill="#2F2E41"/>
<path id="Vector_7" d="M76.8209 79.3241C84.9501 79.3241 91.5401 72.7341 91.5401 64.6049C91.5401 56.4757 84.9501 49.8856 76.8209 49.8856C68.6917 49.8856 62.1017 56.4757 62.1017 64.6049C62.1017 72.7341 68.6917 79.3241 76.8209 79.3241Z" fill="white"/>
<path id="Vector_8" d="M80.0081 61.6985C82.7178 61.6985 84.9145 59.5018 84.9145 56.7921C84.9145 54.0823 82.7178 51.8856 80.0081 51.8856C77.2984 51.8856 75.1017 54.0823 75.1017 56.7921C75.1017 59.5018 77.2984 61.6985 80.0081 61.6985Z" fill="#3F3D56"/>
<path id="Vector_9" d="M17.475 61.0094C7.1853 48.8128 9.7572 29.7184 23.2195 18.3609C36.6818 7.00332 55.9366 7.68352 66.2263 19.8801C76.5161 32.0768 69.075 42.4406 55.6127 53.7981C42.1504 65.1556 27.7647 73.2061 17.475 61.0094Z" fill="#F72585"/>
<path id="Vector_10" d="M39.5783 83.2078C35.8491 83.0298 32.3663 92.5155 31.7994 104.395C31.2324 116.274 33.796 126.048 37.5252 126.226C41.2544 126.404 44.7372 116.918 45.3042 105.039C45.8711 93.1601 43.3076 83.3858 39.5783 83.2078Z" fill="#2F2E41"/>
<path id="Vector_11" d="M96.524 98.1429C96.524 94.6689 87.579 87.8089 77.6532 87.8089C67.7274 87.8089 58.4209 97.5894 58.4209 101.063C58.4209 104.537 67.7274 100.389 77.6532 100.389C87.5789 100.389 96.524 101.617 96.524 98.1429Z" fill="white"/>
</g>
</svg>
