<svg width="106" height="152" viewBox="0 0 106 152" fill="none" xmlns="http://www.w3.org/2000/svg">
<g id="Fulfi-bad">
<path id="Vector" d="M102.763 109.507C102.725 97.6141 99.6685 87.9827 95.9351 87.9945C92.2016 88.0062 89.2054 97.6567 89.2429 109.549C89.2804 121.442 92.3373 131.073 96.0708 131.062C99.8042 131.05 102.8 121.399 102.763 109.507Z" fill="#2F2E41"/>
<path id="Vector_2" d="M98.2508 85.9496C102.061 62.4713 86.1165 40.3497 62.6382 36.5397C39.1599 32.7297 17.0383 48.674 13.2283 72.1523C9.41833 95.6306 25.3626 117.752 48.8409 121.562C72.3192 125.372 94.4408 109.428 98.2508 85.9496Z" fill="#2F2E41"/>
<path id="Vector_3" d="M36.1144 112.851H49.1974L46.6374 140.923L36.1144 136.292V112.851Z" fill="#2F2E41"/>
<path id="Vector_4" d="M47.1746 149.171C49.1641 148.103 48.4677 142.936 45.6192 137.631C42.7707 132.326 38.8487 128.891 36.8592 129.959C34.8698 131.027 35.5661 136.194 38.4147 141.499C41.2632 146.804 45.1852 150.239 47.1746 149.171Z" fill="#2F2E41"/>
<path id="Vector_5" d="M64.6375 112.923H77.7215L75.1615 140.996L64.6375 136.365V112.923Z" fill="#2F2E41"/>
<path id="Vector_6" d="M75.6987 149.244C77.6882 148.176 76.9918 143.009 74.1433 137.704C71.2948 132.398 67.3728 128.963 65.3833 130.032C63.3938 131.1 64.0902 136.267 66.9387 141.572C69.7872 146.877 73.7092 150.312 75.6987 149.244Z" fill="#2F2E41"/>
<path id="Vector_7" d="M53.9623 85.6875C61.8298 83.6415 66.4635 75.2762 64.3121 67.0032C62.1606 58.7301 56.6391 61.6092 48.7716 63.6552C40.9041 65.7012 33.6698 66.1395 35.8213 74.4125C37.9728 82.6855 46.0948 87.7335 53.9623 85.6875Z" fill="white"/>
<path id="Vector_8" d="M51.4419 77.4613C54.0644 76.7793 55.6375 74.1004 54.9555 71.4779C54.2735 68.8554 51.5946 67.2823 48.9721 67.9643C46.3496 68.6463 44.7765 71.3252 45.4585 73.9477C46.1405 76.5702 48.8194 78.1433 51.4419 77.4613Z" fill="#3F3D56"/>
<path id="Vector_9" d="M7.4856 42.8813C5.34758 34.1293 8.85578 24.8919 15.6493 17.2552C22.4388 9.62316 32.4575 3.65695 43.1761 1.46927C64.6468 -2.91292 85.4284 7.96686 89.7268 25.5627C91.8396 34.2115 86.8048 41.0621 78.3528 46.3653C69.9081 51.6639 58.2029 55.3053 47.4001 57.5101C36.5832 59.7178 27.6598 60.4251 20.9166 58.4023C17.5583 57.395 14.7459 55.7117 12.5043 53.197C10.2602 50.6796 8.56605 47.3043 7.4856 42.8813Z" fill="#0E6BA8" stroke="black"/>
<path id="Vector_10" d="M35.1773 97.7699C32.5315 95.1357 23.5844 99.8322 15.1934 108.26C6.8023 116.688 2.14477 125.655 4.79049 128.289C7.43621 130.924 16.3833 126.227 24.7744 117.799C33.1654 109.372 37.823 100.404 35.1773 97.7699Z" fill="#2F2E41"/>
<path id="Vector_11" d="M46.6628 100.681C48.0038 103.886 58.9035 106.761 68.06 102.93C77.2166 99.0987 82.0265 86.4839 80.6855 83.2791C79.3446 80.0744 72.3604 87.4932 63.204 91.3246C54.0475 95.1559 45.3218 97.4763 46.6628 100.681Z" fill="white"/>
</g>
</svg>
