<svg width="504" height="396" viewBox="0 0 504 396" fill="none" xmlns="http://www.w3.org/2000/svg">
<g clip-path="url(#clip0_5_171)">
<path d="M325.926 90.5644H323.478V33.2006C323.478 28.8407 322.474 24.5234 320.523 20.4953C318.572 16.4672 315.712 12.8072 312.107 9.72425C308.503 6.64128 304.223 4.19575 299.513 2.52726C294.803 0.858767 289.755 2.75077e-06 284.657 0H142.55C137.452 -1.0315e-05 132.404 0.85874 127.694 2.52722C122.984 4.19569 118.705 6.64122 115.1 9.72417C111.495 12.8071 108.636 16.4671 106.685 20.4952C104.734 24.5233 103.73 28.8405 103.729 33.2005V347.903C103.729 356.708 107.82 365.153 115.1 371.379C122.38 377.605 132.254 381.103 142.55 381.103H284.657C294.953 381.103 304.827 377.605 312.107 371.379C319.388 365.153 323.478 356.708 323.478 347.903V131.397H325.926V90.5644Z" fill="#E6E6E6"/>
<path d="M286.223 8.63772H267.674C268.527 10.4263 268.852 12.3669 268.622 14.2885C268.391 16.2101 267.612 18.0537 266.352 19.657C265.092 21.2602 263.39 22.5739 261.397 23.4823C259.404 24.3907 257.18 24.8659 254.921 24.866H173.51C171.251 24.8659 169.027 24.3907 167.034 23.4823C165.041 22.5739 163.339 21.2602 162.079 19.657C160.819 18.0537 160.04 16.2101 159.809 14.2885C159.579 12.3669 159.905 10.4263 160.758 8.6377H143.432C135.743 8.63769 128.369 11.2499 122.933 15.8996C117.496 20.5494 114.441 26.8558 114.441 33.4315V347.672C114.441 350.928 115.191 354.152 116.648 357.16C118.105 360.168 120.24 362.901 122.933 365.204C125.625 367.506 128.821 369.332 132.338 370.578C135.855 371.824 139.625 372.466 143.432 372.466H286.223C290.03 372.466 293.8 371.824 297.318 370.578C300.835 369.332 304.031 367.506 306.723 365.204C309.415 362.902 311.55 360.168 313.007 357.16C314.464 354.152 315.214 350.928 315.214 347.672V33.4315C315.214 30.1755 314.464 26.9515 313.007 23.9433C311.55 20.9352 309.415 18.202 306.723 15.8996C304.031 13.5973 300.835 11.771 297.317 10.525C293.8 9.27902 290.03 8.63771 286.223 8.63772Z" fill="#060211"/>
<path d="M187.441 393.716H185.604L189.278 183.731H191.115L187.441 393.716Z" fill="#3F3D56"/>
<path d="M237.65 393.716H235.813L232.139 183.731H233.976L237.65 393.716Z" fill="#3F3D56"/>
<path d="M232.752 187.92H189.891V189.491H232.752V187.92Z" fill="#3F3D56"/>
<path d="M232.752 215.15H189.891V216.721H232.752V215.15Z" fill="#3F3D56"/>
<path d="M233.976 242.38H189.278V243.951H233.976V242.38Z" fill="#3F3D56"/>
<path d="M234.588 269.611H189.278V271.182H234.588V269.611Z" fill="#3F3D56"/>
<path d="M235.201 296.84H188.666V298.411H235.201V296.84Z" fill="#3F3D56"/>
<path d="M235.201 324.07H188.054V325.641H235.201V324.07Z" fill="#3F3D56"/>
<path d="M235.813 351.3H187.441V352.871H235.813V351.3Z" fill="#3F3D56"/>
<path d="M236.425 378.53H186.217V380.101H236.425V378.53Z" fill="#3F3D56"/>
<path d="M209.28 286.035C223.487 286.035 235.004 276.185 235.004 264.035C235.004 251.885 223.487 242.035 209.28 242.035C195.073 242.035 183.556 251.885 183.556 264.035C183.556 276.185 195.073 286.035 209.28 286.035Z" fill="#2F2E41"/>
<path d="M224.411 279.241L216.722 280.432L219.216 292.215L226.906 291.024L224.411 279.241Z" fill="#2F2E41"/>
<path d="M209.032 281.622L201.342 282.813L203.836 294.596L211.526 293.405L209.032 281.622Z" fill="#2F2E41"/>
<path d="M207.918 297.073C210.663 295.085 212.181 292.76 211.309 291.88C210.438 291 207.506 291.898 204.761 293.886C202.017 295.874 200.498 298.199 201.37 299.079C202.242 299.959 205.173 299.061 207.918 297.073Z" fill="#2F2E41"/>
<path d="M222.977 294.742C225.722 292.754 227.241 290.429 226.369 289.548C225.497 288.668 222.566 289.566 219.821 291.554C217.076 293.542 215.558 295.867 216.43 296.747C217.301 297.628 220.233 296.73 222.977 294.742Z" fill="#2F2E41"/>
<path d="M207.479 266.173C212.335 266.173 216.271 262.807 216.271 258.654C216.271 254.501 212.335 251.135 207.479 251.135C202.624 251.135 198.688 254.501 198.688 258.654C198.688 262.807 202.624 266.173 207.479 266.173Z" fill="white"/>
<path d="M203.866 258.465C205.485 258.465 206.797 257.343 206.797 255.958C206.797 254.574 205.485 253.452 203.866 253.452C202.248 253.452 200.935 254.574 200.935 255.958C200.935 257.343 202.248 258.465 203.866 258.465Z" fill="#3F3D56"/>
<path d="M229.573 240.102C229.96 231.957 221.752 225.058 211.24 224.693C200.729 224.328 191.894 230.634 191.507 238.779C191.12 246.924 198.427 248.774 208.939 249.14C219.45 249.505 229.186 248.246 229.573 240.102Z" fill="#2200FF"/>
<path d="M198.064 262.485C198.563 260.626 193.354 258.019 186.43 256.661C179.506 255.304 173.489 255.711 172.991 257.57C172.492 259.429 177.701 262.036 184.625 263.393C191.549 264.75 197.566 264.344 198.064 262.485Z" fill="#2F2E41"/>
<path d="M248.56 269.666C249.058 267.807 243.849 265.2 236.925 263.843C230.001 262.485 223.984 262.892 223.486 264.751C222.988 266.61 228.197 269.217 235.121 270.575C242.045 271.932 248.062 271.525 248.56 269.666Z" fill="#2F2E41"/>
<path d="M216.345 272.705C216.484 273.353 216.472 274.018 216.31 274.661C216.147 275.305 215.839 275.915 215.401 276.457C214.963 276.999 214.404 277.461 213.757 277.818C213.11 278.175 212.387 278.42 211.629 278.538C210.872 278.656 210.094 278.645 209.342 278.506C208.589 278.367 207.876 278.102 207.243 277.727C206.61 277.352 206.069 276.874 205.652 276.321C205.235 275.767 204.95 275.148 204.813 274.5L204.81 274.491C204.234 271.767 206.697 270.803 209.882 270.31C213.067 269.816 215.769 269.981 216.345 272.705Z" fill="white"/>
<path d="M297.978 133.658L133.317 146.279C132.509 146.34 131.705 146.124 131.082 145.679C130.459 145.234 130.068 144.596 129.995 143.904L126.334 108.972C126.262 108.281 126.514 107.594 127.035 107.061C127.555 106.528 128.301 106.194 129.11 106.131L293.771 93.51C294.579 93.4488 295.383 93.6644 296.006 94.1095C296.629 94.5545 297.02 95.1927 297.093 95.884L300.754 130.816C300.826 131.507 300.574 132.195 300.053 132.728C299.533 133.26 298.786 133.595 297.978 133.658ZM129.219 107.174C128.734 107.212 128.286 107.412 127.974 107.732C127.662 108.052 127.511 108.464 127.554 108.879L131.214 143.811C131.258 144.226 131.493 144.609 131.867 144.876C132.24 145.143 132.723 145.272 133.208 145.235L297.869 132.614C298.354 132.577 298.802 132.376 299.114 132.057C299.426 131.737 299.577 131.324 299.534 130.909L295.874 95.9775C295.83 95.5627 295.595 95.1798 295.221 94.9127C294.848 94.6457 294.365 94.5163 293.88 94.5531L129.219 107.174Z" fill="#E6E6E6"/>
<path d="M152.558 135.565C159.66 135.565 165.417 130.642 165.417 124.568C165.417 118.495 159.66 113.572 152.558 113.572C145.457 113.572 139.7 118.495 139.7 124.568C139.7 130.642 145.457 135.565 152.558 135.565Z" fill="#0E6BA8"/>
<path d="M181.371 115C181.091 115.021 180.818 115.09 180.569 115.201C180.319 115.313 180.098 115.465 179.918 115.65C179.737 115.835 179.601 116.048 179.517 116.278C179.433 116.507 179.403 116.749 179.428 116.989C179.453 117.228 179.533 117.462 179.664 117.675C179.794 117.888 179.972 118.077 180.188 118.232C180.404 118.386 180.654 118.502 180.922 118.574C181.191 118.646 181.473 118.672 181.754 118.651L282.38 110.938C282.66 110.916 282.933 110.848 283.182 110.736C283.431 110.625 283.652 110.472 283.833 110.287C284.013 110.103 284.15 109.889 284.234 109.66C284.318 109.43 284.348 109.188 284.323 108.949C284.298 108.709 284.218 108.476 284.087 108.263C283.957 108.049 283.778 107.86 283.562 107.706C283.346 107.552 283.097 107.435 282.828 107.363C282.56 107.291 282.277 107.265 281.997 107.287L181.371 115Z" fill="#A6E1FA"/>
<path d="M182.519 125.952C182.238 125.973 181.964 126.041 181.714 126.152C181.463 126.263 181.241 126.416 181.06 126.601C180.879 126.785 180.742 126.999 180.657 127.229C180.573 127.46 180.542 127.702 180.567 127.942C180.592 128.182 180.673 128.416 180.804 128.63C180.935 128.844 181.114 129.033 181.331 129.187C181.548 129.342 181.798 129.458 182.068 129.529C182.337 129.601 182.621 129.626 182.902 129.603L283.528 121.891C284.093 121.847 284.615 121.612 284.979 121.24C285.343 120.867 285.519 120.385 285.468 119.902C285.418 119.418 285.145 118.971 284.709 118.659C284.273 118.348 283.711 118.197 283.145 118.24L182.519 125.952Z" fill="#A6E1FA"/>
<path d="M237.878 141.861C240.478 136.044 240.855 130.762 238.72 130.064C236.584 129.366 232.746 133.516 230.146 139.333C227.546 145.151 227.169 150.432 229.305 151.13C231.44 151.828 235.279 147.678 237.878 141.861Z" fill="#2F2E41"/>
<path d="M235.668 161.24C238.001 148.946 228.238 137.362 213.862 135.367C199.486 133.371 185.941 141.721 183.609 154.015C181.276 166.31 191.038 177.894 205.414 179.889C219.79 181.884 233.335 173.535 235.668 161.24Z" fill="#2F2E41"/>
<path d="M205.632 175.327H197.621V187.602H205.632V175.327Z" fill="#2F2E41"/>
<path d="M221.655 175.327H213.644V187.602H221.655V175.327Z" fill="#2F2E41"/>
<path d="M204.297 189.886C207.984 189.886 210.973 188.928 210.973 187.745C210.973 186.563 207.984 185.604 204.297 185.604C200.61 185.604 197.621 186.563 197.621 187.745C197.621 188.928 200.61 189.886 204.297 189.886Z" fill="#2F2E41"/>
<path d="M220.32 189.601C224.007 189.601 226.996 188.642 226.996 187.46C226.996 186.277 224.007 185.319 220.32 185.319C216.633 185.319 213.644 186.277 213.644 187.46C213.644 188.642 216.633 189.601 220.32 189.601Z" fill="#2F2E41"/>
<path d="M184.058 136.655C181.929 128.499 188.736 120.259 199.261 118.249C209.786 116.239 220.045 121.221 222.174 129.376C224.303 137.531 217.328 140.539 206.803 142.549C196.277 144.559 186.188 144.81 184.058 136.655Z" fill="#2200FF"/>
<path d="M191.85 151.995C192.829 150.229 188.29 146.634 181.71 143.965C175.131 141.296 169.003 140.565 168.024 142.331C167.044 144.098 171.584 147.693 178.163 150.362C184.742 153.03 190.87 153.762 191.85 151.995Z" fill="#2F2E41"/>
<path d="M50.76 386.294C65.3238 386.294 77.1301 376.197 77.1301 363.741C77.1301 351.286 65.3238 341.189 50.76 341.189C36.1962 341.189 24.3899 351.286 24.3899 363.741C24.3899 376.197 36.1962 386.294 50.76 386.294Z" fill="#2F2E41"/>
<path d="M46.7546 381.441H38.7434V393.716H46.7546V381.441Z" fill="#2F2E41"/>
<path d="M62.7768 381.441H54.7656V393.716H62.7768V381.441Z" fill="#2F2E41"/>
<path d="M45.4191 396C49.1062 396 52.0951 395.042 52.0951 393.859C52.0951 392.677 49.1062 391.718 45.4191 391.718C41.7321 391.718 38.7432 392.677 38.7432 393.859C38.7432 395.042 41.7321 396 45.4191 396Z" fill="#2F2E41"/>
<path d="M61.4416 395.715C65.1286 395.715 68.1176 394.756 68.1176 393.574C68.1176 392.391 65.1286 391.433 61.4416 391.433C57.7546 391.433 54.7656 392.391 54.7656 393.574C54.7656 394.756 57.7546 395.715 61.4416 395.715Z" fill="#2F2E41"/>
<path d="M51.4276 365.74C56.4051 365.74 60.4402 362.289 60.4402 358.032C60.4402 353.775 56.4051 350.324 51.4276 350.324C46.4501 350.324 42.415 353.775 42.415 358.032C42.415 362.289 46.4501 365.74 51.4276 365.74Z" fill="white"/>
<path d="M51.4278 360.601C53.087 360.601 54.432 359.451 54.432 358.032C54.432 356.613 53.087 355.463 51.4278 355.463C49.7686 355.463 48.4236 356.613 48.4236 358.032C48.4236 359.451 49.7686 360.601 51.4278 360.601Z" fill="#3F3D56"/>
<path d="M25.1804 342.768C23.0511 334.613 29.8575 326.373 40.3829 324.363C50.9084 322.353 61.1669 327.334 63.2962 335.49C65.4255 343.645 58.4499 346.653 47.9245 348.663C37.3991 350.673 27.3097 350.924 25.1804 342.768Z" fill="#E6E6E6"/>
<path d="M69.9878 283.173C72.5877 277.356 72.9642 272.074 70.8289 271.376C68.6935 270.678 64.8549 274.828 62.2551 280.645C59.6552 286.462 59.2786 291.744 61.414 292.442C63.5493 293.14 67.388 288.99 69.9878 283.173Z" fill="#2F2E41"/>
<path d="M67.7771 302.552C70.11 290.257 60.3473 278.673 45.9715 276.678C31.5958 274.683 18.0508 283.032 15.7179 295.327C13.3851 307.621 23.1477 319.205 37.5235 321.2C51.8992 323.196 65.4442 314.846 67.7771 302.552Z" fill="#2F2E41"/>
<path d="M37.7418 316.639H29.7306V328.914H37.7418V316.639Z" fill="#2F2E41"/>
<path d="M53.7643 316.639H45.7532V328.914H53.7643V316.639Z" fill="#2F2E41"/>
<path d="M36.4066 331.198C40.0936 331.198 43.0826 330.239 43.0826 329.057C43.0826 327.874 40.0936 326.916 36.4066 326.916C32.7195 326.916 29.7306 327.874 29.7306 329.057C29.7306 330.239 32.7195 331.198 36.4066 331.198Z" fill="#2F2E41"/>
<path d="M52.4292 330.912C56.1162 330.912 59.1051 329.954 59.1051 328.771C59.1051 327.589 56.1162 326.63 52.4292 326.63C48.7421 326.63 45.7532 327.589 45.7532 328.771C45.7532 329.954 48.7421 330.912 52.4292 330.912Z" fill="#2F2E41"/>
<path d="M42.4152 300.937C47.3927 300.937 51.4277 297.487 51.4277 293.23C51.4277 288.973 47.3927 285.522 42.4152 285.522C37.4376 285.522 33.4026 288.973 33.4026 293.23C33.4026 297.487 37.4376 300.937 42.4152 300.937Z" fill="white"/>
<path d="M42.4151 295.799C44.0743 295.799 45.4193 294.649 45.4193 293.23C45.4193 291.811 44.0743 290.661 42.4151 290.661C40.7559 290.661 39.4109 291.811 39.4109 293.23C39.4109 294.649 40.7559 295.799 42.4151 295.799Z" fill="#3F3D56"/>
<path d="M16.1677 277.966C14.0384 269.811 20.8448 261.57 31.3702 259.56C41.8956 257.55 52.1542 262.532 54.2835 270.687C56.4127 278.842 49.4372 281.85 38.9118 283.86C28.3864 285.87 18.2969 286.121 16.1677 277.966Z" fill="#2200FF"/>
<path d="M23.959 293.307C24.9386 291.541 20.3991 287.945 13.8197 285.276C7.24029 282.608 1.11251 281.876 0.132892 283.643C-0.846729 285.409 3.69276 289.004 10.2722 291.673C16.8516 294.342 22.9794 295.073 23.959 293.307Z" fill="#2F2E41"/>
<path d="M28.7946 307.075C28.7946 309.283 35.44 313.641 42.8141 313.641C50.1882 313.641 57.1022 307.427 57.1022 305.22C57.1022 303.012 50.1881 305.648 42.8141 305.648C35.4401 305.648 28.7946 304.868 28.7946 307.075Z" fill="white"/>
<path d="M155.126 299.469C157.726 293.651 158.103 288.37 155.967 287.672C153.832 286.974 149.993 291.124 147.394 296.941C144.794 302.758 144.417 308.04 146.553 308.738C148.688 309.436 152.527 305.286 155.126 299.469Z" fill="#2F2E41"/>
<path d="M158.427 323.561C160.759 311.266 150.997 299.682 136.621 297.687C122.245 295.692 108.7 304.041 106.367 316.336C104.034 328.63 113.797 340.214 128.173 342.209C142.549 344.204 156.094 335.855 158.427 323.561Z" fill="#2F2E41"/>
<path d="M120.38 337.647H128.391L126.824 352.347L120.38 349.922V337.647Z" fill="#2F2E41"/>
<path d="M127.153 356.666C128.371 356.107 127.945 353.401 126.2 350.623C124.456 347.845 122.055 346.046 120.837 346.606C119.618 347.165 120.045 349.871 121.789 352.649C123.533 355.427 125.935 357.226 127.153 356.666Z" fill="#2F2E41"/>
<path d="M137.845 337.685H145.856L144.289 352.386L137.845 349.961V337.685Z" fill="#2F2E41"/>
<path d="M144.618 356.705C145.836 356.145 145.409 353.44 143.665 350.662C141.921 347.883 139.52 346.085 138.301 346.644C137.083 347.204 137.51 349.909 139.254 352.687C140.998 355.465 143.399 357.264 144.618 356.705Z" fill="#2F2E41"/>
<path d="M133.064 321.946C138.042 321.946 142.077 318.495 142.077 314.238C142.077 309.981 138.042 306.531 133.064 306.531C128.087 306.531 124.052 309.981 124.052 314.238C124.052 318.495 128.087 321.946 133.064 321.946Z" fill="white"/>
<path d="M133.064 316.808C134.724 316.808 136.069 315.657 136.069 314.238C136.069 312.819 134.724 311.669 133.064 311.669C131.405 311.669 130.06 312.819 130.06 314.238C130.06 315.657 131.405 316.808 133.064 316.808Z" fill="#3F3D56"/>
<path d="M106.817 298.975C104.688 290.819 111.494 282.579 122.02 280.569C132.545 278.559 142.804 283.541 144.933 291.696C147.062 299.851 140.087 302.859 129.561 304.869C119.036 306.879 108.946 307.13 106.817 298.975Z" fill="#F2F2F2"/>
<path d="M112.366 313.317C114.204 312.156 112.188 307.153 107.862 302.144C103.535 297.134 98.5374 294.015 96.6986 295.177C94.8598 296.338 96.8763 301.341 101.203 306.35C105.529 311.359 110.527 314.479 112.366 313.317Z" fill="#2F2E41"/>
<path d="M145.263 331.576C145.263 329.757 139.786 326.165 133.708 326.165C127.631 326.165 121.932 331.286 121.932 333.106C121.932 334.925 127.631 332.753 133.708 332.753C139.786 332.753 145.263 333.395 145.263 331.576Z" fill="white"/>
<path d="M117.639 301.067C110 301.069 102.434 299.785 95.3754 297.286C88.3166 294.786 81.9029 291.122 76.5009 286.502C71.0988 281.882 66.8142 276.397 63.8921 270.36C60.97 264.324 59.4676 257.853 59.4708 251.32C59.4708 251.216 59.4711 251.106 59.478 251.002C59.6562 223.759 85.7477 201.573 117.639 201.573C130.761 201.574 143.498 205.37 153.779 212.343C164.061 219.316 171.284 229.056 174.276 239.983C177.268 250.91 175.853 262.381 170.26 272.533C164.668 282.685 155.226 290.922 143.469 295.906C135.446 299.321 126.601 301.088 117.639 301.067ZM117.639 202.62C102.605 202.648 88.1916 207.75 77.5303 216.815C66.869 225.88 60.8215 238.178 60.7017 251.035C60.6951 251.146 60.6954 251.235 60.6954 251.32C60.6915 263.67 66.1743 275.56 76.034 284.584C85.8937 293.607 99.3938 299.09 113.802 299.922C128.21 300.754 142.449 296.874 153.638 289.067C164.827 281.259 172.13 270.107 174.068 257.869C175.163 250.983 174.521 243.977 172.187 237.32C169.852 230.664 165.879 224.512 160.533 219.279C155.187 214.045 148.594 209.85 141.195 206.977C133.797 204.104 125.765 202.618 117.639 202.62Z" fill="#0E6BA8"/>
<path d="M143.982 253.728L104.169 234.07C103.983 233.978 103.771 233.929 103.556 233.929C103.341 233.929 103.13 233.978 102.944 234.07C102.758 234.162 102.603 234.294 102.496 234.453C102.388 234.612 102.332 234.793 102.332 234.977V274.293C102.332 274.477 102.388 274.658 102.496 274.817C102.603 274.976 102.758 275.108 102.944 275.2C103.13 275.292 103.341 275.341 103.556 275.341C103.771 275.341 103.983 275.292 104.169 275.2L143.982 255.542C144.168 255.45 144.323 255.318 144.43 255.159C144.538 255 144.594 254.819 144.594 254.635C144.594 254.451 144.538 254.271 144.43 254.111C144.323 253.952 144.168 253.82 143.982 253.728L104.169 234.07C103.983 233.978 103.771 233.929 103.556 233.929C103.341 233.929 103.13 233.978 102.944 234.07C102.758 234.162 102.603 234.294 102.496 234.453C102.388 234.612 102.332 234.793 102.332 234.977V274.293C102.332 274.477 102.388 274.658 102.496 274.817C102.603 274.976 102.758 275.108 102.944 275.2C103.13 275.292 103.341 275.341 103.556 275.341C103.771 275.341 103.983 275.292 104.169 275.2L143.982 255.542C144.168 255.45 144.323 255.318 144.43 255.159C144.538 255 144.594 254.819 144.594 254.635C144.594 254.451 144.538 254.271 144.43 254.111C144.323 253.952 144.168 253.82 143.982 253.728Z" fill="#0E6BA8"/>
<path d="M139.07 392.669C156.992 392.669 171.521 392.2 171.521 391.622C171.521 391.043 156.992 390.574 139.07 390.574C121.147 390.574 106.618 391.043 106.618 391.622C106.618 392.2 121.147 392.669 139.07 392.669Z" fill="#E6E6E6"/>
<path d="M471.548 382.72C489.471 382.72 504 382.251 504 381.672C504 381.094 489.471 380.625 471.548 380.625C453.625 380.625 439.096 381.094 439.096 381.672C439.096 382.251 453.625 382.72 471.548 382.72Z" fill="#E6E6E6"/>
<path d="M471.393 380.79L325.871 313.698C325.157 313.368 324.625 312.809 324.392 312.144C324.159 311.479 324.244 310.762 324.629 310.151L344.089 279.279C344.475 278.668 345.128 278.214 345.906 278.014C346.683 277.815 347.521 277.888 348.236 278.217L493.758 345.309C494.472 345.639 495.004 346.198 495.237 346.863C495.47 347.528 495.385 348.245 495 348.856L475.54 379.728C475.154 380.338 474.501 380.793 473.723 380.992C472.946 381.191 472.108 381.119 471.393 380.79ZM347.655 279.139C347.226 278.941 346.723 278.898 346.257 279.017C345.79 279.137 345.398 279.41 345.166 279.776L325.706 310.648C325.476 311.015 325.425 311.445 325.565 311.844C325.704 312.243 326.023 312.578 326.452 312.776L471.974 379.868C472.403 380.065 472.906 380.109 473.372 379.99C473.839 379.87 474.231 379.597 474.462 379.231L493.922 348.359C494.153 347.992 494.204 347.562 494.064 347.163C493.925 346.764 493.606 346.429 493.177 346.231L347.655 279.139Z" fill="#E6E6E6"/>
<g filter="url(#filter0_d_5_171)">
<path d="M254 371.525L311.685 329.295C311.968 329.087 312.153 328.788 312.199 328.464C312.245 328.14 312.149 327.817 311.931 327.566L300.924 314.878C300.706 314.627 300.385 314.469 300.03 314.438C299.676 314.407 299.318 314.506 299.034 314.713L241.349 356.943C241.066 357.151 240.881 357.45 240.835 357.774C240.789 358.098 240.885 358.421 241.103 358.673L252.11 371.36C252.328 371.611 252.649 371.769 253.004 371.8C253.358 371.831 253.716 371.732 254 371.525ZM299.363 315.092C299.533 314.968 299.748 314.908 299.961 314.927C300.173 314.945 300.366 315.04 300.497 315.191L311.504 327.878C311.635 328.029 311.692 328.223 311.665 328.418C311.637 328.612 299.385 316.005 299.215 316.129L241.53 358.36C241.36 358.484 253.286 371.33 253.073 371.311C252.861 371.293 252.668 371.198 252.537 371.047L241.53 358.36C241.399 358.209 241.342 358.015 241.369 357.821C241.397 357.626 241.508 357.447 241.678 357.322L299.363 315.092Z" fill="#0A2472"/>
<path d="M311.427 328.862C311.415 328.872 311.402 328.882 311.389 328.892L253.705 371.121L311.427 328.862ZM311.427 328.862C311.378 328.838 311.34 328.809 311.325 328.798C311.284 328.767 311.236 328.725 311.189 328.683C311.09 328.595 310.951 328.464 310.782 328.3C310.44 327.971 309.956 327.493 309.378 326.916C308.386 325.926 307.112 324.641 305.795 323.314C305.577 323.094 305.358 322.873 305.138 322.652C303.594 321.096 302.047 319.539 300.876 318.379C300.29 317.799 299.801 317.321 299.454 316.993C299.357 316.901 299.273 316.823 299.202 316.758L242.263 358.442L244.873 361.45C245.737 362.408 246.712 363.481 247.687 364.553C247.957 364.85 248.227 365.146 248.495 365.44C249.681 366.743 250.82 367.995 251.707 368.978C252.25 369.58 252.7 370.083 253.008 370.436C253.161 370.612 253.283 370.755 253.365 370.855C253.404 370.903 253.442 370.952 253.471 370.993C253.48 371.007 253.511 371.051 253.534 371.107L253.535 371.108C253.538 371.115 253.554 371.151 253.565 371.205C253.614 371.182 253.661 371.154 253.704 371.122L311.427 328.862ZM299.51 316.533L299.51 316.533C299.51 316.533 299.511 316.533 299.511 316.532L299.51 316.533Z" stroke="#A6E1FA"/>
</g>
<path d="M355.917 315.651C363.019 315.651 368.776 310.728 368.776 304.655C368.776 298.581 363.019 293.658 355.917 293.658C348.816 293.658 343.059 298.581 343.059 304.655C343.059 310.728 348.816 315.651 355.917 315.651Z" fill="#0E6BA8"/>
<path d="M386.125 310.253C385.877 310.139 385.606 310.067 385.326 310.043C385.046 310.018 384.763 310.041 384.493 310.11C384.223 310.179 383.972 310.293 383.754 310.445C383.536 310.597 383.354 310.784 383.221 310.996C383.087 311.208 383.004 311.441 382.975 311.68C382.947 311.92 382.974 312.162 383.054 312.392C383.135 312.623 383.268 312.837 383.446 313.024C383.624 313.211 383.843 313.365 384.091 313.48L473.021 354.48C473.269 354.595 473.541 354.666 473.821 354.691C474.101 354.715 474.384 354.692 474.653 354.623C474.923 354.554 475.174 354.44 475.392 354.288C475.611 354.136 475.792 353.949 475.925 353.737C476.059 353.525 476.142 353.293 476.171 353.053C476.199 352.814 476.173 352.572 476.092 352.341C476.011 352.111 475.878 351.896 475.7 351.709C475.522 351.523 475.303 351.368 475.055 351.254L386.125 310.253Z" fill="#A6E1FA"/>
<path d="M380.023 319.933C379.523 319.702 378.936 319.651 378.392 319.79C377.847 319.93 377.39 320.248 377.12 320.676C376.85 321.104 376.79 321.606 376.953 322.072C377.117 322.537 377.489 322.929 377.99 323.159L466.92 364.16C467.167 364.274 467.439 364.345 467.719 364.37C467.999 364.394 468.282 364.371 468.551 364.302C468.821 364.233 469.072 364.119 469.29 363.967C469.508 363.815 469.689 363.628 469.823 363.416C469.956 363.204 470.04 362.972 470.068 362.733C470.097 362.493 470.07 362.251 469.989 362.021C469.909 361.79 469.776 361.575 469.598 361.389C469.42 361.202 469.201 361.047 468.953 360.933L380.023 319.933Z" fill="#A6E1FA"/>
<path d="M267.551 370.299L267.327 370.018L268.062 369.432C268.209 369.316 268.232 369.195 268.132 369.07L261.035 360.149C260.935 360.024 260.813 360.019 260.667 360.135L259.931 360.721L259.707 360.439L263.369 357.525C264.152 356.903 264.99 356.585 265.883 356.573C266.787 356.553 267.509 356.882 268.048 357.56C268.463 358.082 268.688 358.653 268.721 359.273C268.757 359.875 268.624 360.458 268.323 361.022C269.096 360.645 269.865 360.519 270.629 360.644C271.403 360.76 272.089 361.194 272.687 361.946C273.276 362.686 273.462 363.552 273.245 364.543C273.028 365.533 272.481 366.377 271.605 367.074L267.551 370.299ZM267.53 362.113L265.792 363.495L269.441 368.081L271.178 366.698C271.804 366.2 272.106 365.585 272.086 364.852C272.075 364.111 271.825 363.432 271.335 362.816C270.846 362.201 270.245 361.81 269.533 361.643C268.824 361.458 268.156 361.615 267.53 362.113ZM263.389 358.225L262.294 359.097L265.481 363.103L266.671 362.157C267.286 361.667 267.579 361.093 267.55 360.435C267.52 359.777 267.286 359.172 266.846 358.619C266.398 358.055 265.876 357.721 265.281 357.615C264.677 357.499 264.047 357.702 263.389 358.225ZM278.954 345.127L279.178 345.409L278.443 345.994C278.297 346.11 278.273 346.231 278.373 346.356L283.416 352.695C284.279 353.78 284.613 354.843 284.419 355.884C284.216 356.914 283.588 357.848 282.534 358.687C281.48 359.525 280.429 359.927 279.379 359.893C278.321 359.849 277.361 359.284 276.498 358.199L271.455 351.86C271.355 351.734 271.233 351.73 271.086 351.846L270.351 352.431L270.127 352.15L273.32 349.61L273.544 349.891L272.808 350.477C272.662 350.593 272.639 350.713 272.738 350.839L277.868 357.287C278.566 358.164 279.298 358.646 280.066 358.733C280.837 358.802 281.592 358.541 282.333 357.952C283.084 357.354 283.555 356.639 283.744 355.807C283.926 354.964 283.639 354.068 282.883 353.118L277.841 346.78C277.741 346.654 277.618 346.65 277.472 346.766L276.737 347.351L276.513 347.07L278.954 345.127ZM286.667 339.707L293.789 348.66C293.889 348.785 294.012 348.789 294.158 348.673L295.519 347.59L295.743 347.872L291.298 351.408L291.074 351.126L292.436 350.043C292.582 349.927 292.605 349.806 292.506 349.681L285.384 340.728L283.365 342.334C283.093 342.55 283.039 342.781 283.2 343.027L284.422 345.045L284.062 345.332L283.477 344.596C282.747 343.678 282.164 343.042 281.73 342.689C282.139 342.517 282.755 342.103 283.579 341.448L287.774 338.111C288.598 337.455 289.14 336.947 289.399 336.588C289.646 337.09 290.134 337.801 290.865 338.719L291.45 339.455L291.09 339.741L289.398 338.097C289.195 337.884 288.957 337.885 288.686 338.101L286.667 339.707ZM287.097 386.645L294.219 395.598C294.318 395.723 294.441 395.727 294.587 395.611L295.949 394.528L296.173 394.81L291.728 398.346L291.504 398.064L292.866 396.981C293.012 396.865 293.035 396.744 292.935 396.619L285.813 387.666L283.794 389.272C283.523 389.488 283.468 389.719 283.63 389.965L284.852 391.983L284.492 392.269L283.907 391.534C283.176 390.616 282.594 389.98 282.16 389.627C282.568 389.455 283.185 389.041 284.009 388.386L288.204 385.049C289.028 384.393 289.57 383.885 289.829 383.526C290.075 384.028 290.564 384.739 291.294 385.657L291.879 386.393L291.519 386.679L289.828 385.034C289.624 384.821 289.387 384.823 289.116 385.039L287.097 386.645ZM301.296 388.817C299.75 388.565 298.342 387.641 297.072 386.044C295.802 384.448 295.218 382.868 295.32 381.304C295.432 379.733 296.151 378.42 297.477 377.365C298.812 376.303 300.253 375.898 301.8 376.15C303.357 376.393 304.77 377.313 306.04 378.91C307.31 380.506 307.889 382.091 307.776 383.662C307.674 385.226 306.955 386.539 305.62 387.601C304.294 388.656 302.853 389.061 301.296 388.817ZM296.555 380.833C296.633 382.151 297.248 383.536 298.402 384.986C299.556 386.436 300.766 387.348 302.033 387.72C303.311 388.083 304.398 387.908 305.296 387.195C306.193 386.481 306.608 385.46 306.541 384.134C306.474 382.807 305.863 381.419 304.71 379.968C303.556 378.518 302.34 377.611 301.063 377.247C299.785 376.883 298.698 377.058 297.8 377.772C296.903 378.486 296.488 379.506 296.555 380.833ZM321.005 375.055L308.173 371.003L314.722 379.236C314.838 379.382 314.969 379.397 315.115 379.281L315.851 378.695L316.075 378.977L313.634 380.919L313.409 380.638L314.145 380.053C314.291 379.936 314.306 379.805 314.19 379.659L307.118 370.769C307.018 370.644 306.895 370.639 306.749 370.755L306.014 371.341L305.789 371.059L308.09 369.229L319.057 372.67L313.528 365.72C313.412 365.574 313.281 365.559 313.135 365.675L312.399 366.261L312.175 365.979L314.617 364.037L314.841 364.318L314.105 364.903C313.959 365.02 313.936 365.14 314.036 365.266L321.506 374.657L321.005 375.055Z" fill="white"/>
</g>
<defs>
<filter id="filter0_d_5_171" x="236.824" y="314.432" width="79.3867" height="65.3733" filterUnits="userSpaceOnUse" color-interpolation-filters="sRGB">
<feFlood flood-opacity="0" result="BackgroundImageFix"/>
<feColorMatrix in="SourceAlpha" type="matrix" values="0 0 0 0 0 0 0 0 0 0 0 0 0 0 0 0 0 0 127 0" result="hardAlpha"/>
<feOffset dy="4"/>
<feGaussianBlur stdDeviation="2"/>
<feComposite in2="hardAlpha" operator="out"/>
<feColorMatrix type="matrix" values="0 0 0 0 0 0 0 0 0 0 0 0 0 0 0 0 0 0 0.25 0"/>
<feBlend mode="normal" in2="BackgroundImageFix" result="effect1_dropShadow_5_171"/>
<feBlend mode="normal" in="SourceGraphic" in2="effect1_dropShadow_5_171" result="shape"/>
</filter>
<clipPath id="clip0_5_171">
<rect width="504" height="396" fill="white"/>
</clipPath>
</defs>
</svg>
